<?xml version="1.0" encoding="UTF-8" standalone="no"?>
<svg
   xmlns:dc="http://purl.org/dc/elements/1.1/"
   xmlns:cc="http://creativecommons.org/ns#"
   xmlns:rdf="http://www.w3.org/1999/02/22-rdf-syntax-ns#"
   xmlns:svg="http://www.w3.org/2000/svg"
   xmlns="http://www.w3.org/2000/svg"
   version="1.1"
   id="svg2"
   xml:space="preserve"
   width="826.66669"
   height="417.33334"
   viewBox="0 0 826.66669 417.33334"><metadata
     id="metadata8"><rdf:RDF><cc:Work
         rdf:about=""><dc:format>image/svg+xml</dc:format><dc:type
           rdf:resource="http://purl.org/dc/dcmitype/StillImage" /></cc:Work></rdf:RDF></metadata><defs
     id="defs6"><clipPath
       clipPathUnits="userSpaceOnUse"
       id="clipPath20"><path
         d="M 0,0.040007 H 619.92 V 313.00001 H 0 Z"
         id="path18" /></clipPath><clipPath
       clipPathUnits="userSpaceOnUse"
       id="clipPath30"><path
         d="M 0,0 H 620 V 313 H 0 Z"
         id="path28" /></clipPath></defs><g
     id="g10"
     transform="matrix(1.3333333,0,0,-1.3333333,0,417.33333)"><g
       id="g12" /><g
       id="g14"><g
         id="g16"
         clip-path="url(#clipPath20)"><path
           d="M 0,0.040007 H 619.92 V 313.00001 H 0 Z"
           style="fill:#ffffff;fill-opacity:1;fill-rule:nonzero;stroke:none"
           id="path22" /></g></g><g
       id="g24"><g
         id="g26"
         clip-path="url(#clipPath30)"><path
           d="M 0,-0.2499918 H 619.875 V 313.00001 H 0 Z"
           style="fill:#ffffff;fill-opacity:1;fill-rule:nonzero;stroke:none"
           id="path32" /><path
           d="m 90.00953,246.9848 h 92.93727 v 45.5765 H 90.00953 Z"
           style="fill:#f2f2f2;fill-opacity:1;fill-rule:nonzero;stroke:none"
           id="path34" /><path
           d="m 185.2227,132.2199 h 372.2696 v 48.1546 H 185.2227 Z"
           style="fill:#e9e3e2;fill-opacity:1;fill-rule:nonzero;stroke:none"
           id="path36" /><g
           id="g38"
           transform="matrix(7.874016e-5,0,0,-7.874016e-5,185.2227,180.3745)"><path
             d="M 0,0 H 4727823 V 611563 H 0 Z"
             style="fill:none;stroke:#d7cecc;stroke-width:12700;stroke-linecap:butt;stroke-linejoin:miter;stroke-miterlimit:8;stroke-dasharray:none;stroke-opacity:1"
             id="path40" /></g><g
           id="g42"
           transform="matrix(0.24,0,0,0.24,317.3575,-162.92)"><text
             transform="matrix(1,0,0,-1,0,1304)"
             style="font-variant:normal;font-weight:bold;font-size:75px;font-family:DengXian;-inkscape-font-specification:DengXian-Bold;writing-mode:lr-tb;fill:#000000;fill-opacity:1;fill-rule:nonzero;stroke:none"
             id="text46"><tspan
               x="0 75 150 225 300 375"
               y="0"
               id="tspan44">充电桩运营商</tspan></text></g><path
           d="M 185.2223,246.9848 H 557.4919 V 294.6 H 185.2223 Z"
           style="fill:#e5ccd2;fill-opacity:1;fill-rule:nonzero;stroke:none"
           id="path48" /><g
           id="g50"
           transform="matrix(7.874016e-5,0,0,-7.874016e-5,185.2223,294.6)"><path
             d="M 0,0 H 4727824 V 604713 H 0 Z"
             style="fill:none;stroke:#bc7a88;stroke-width:12700;stroke-linecap:butt;stroke-linejoin:miter;stroke-miterlimit:8;stroke-dasharray:none;stroke-opacity:1"
             id="path52" /></g><g
           id="g54"
           transform="matrix(0.24,0,0,0.24,335.357,-48.43999)"><text
             transform="matrix(1,0,0,-1,0,1304)"
             style="font-variant:normal;font-weight:bold;font-size:75px;font-family:DengXian;-inkscape-font-specification:DengXian-Bold;writing-mode:lr-tb;fill:#000000;fill-opacity:1;fill-rule:nonzero;stroke:none"
             id="text58"><tspan
               x="0 75 150 225"
               y="0"
               id="tspan56">国家电网</tspan></text></g><path
           d="M 186.8528,18.22749 H 559.1223 V 66.01332 H 186.8528 Z"
           style="fill:#d5dcd5;fill-opacity:1;fill-rule:nonzero;stroke:none"
           id="path60" /><g
           id="g62"
           transform="matrix(7.874016e-5,0,0,-7.874016e-5,186.8528,66.01332)"><path
             d="M 0,0 H 4727823 V 606880 H 0 Z"
             style="fill:none;stroke:#b7c5b8;stroke-width:12700;stroke-linecap:butt;stroke-linejoin:miter;stroke-miterlimit:8;stroke-dasharray:none;stroke-opacity:1"
             id="path64" /></g><path
           d="m 290.6269,26.48993 h 50.4089 v 28.72922 h -50.4089 z"
           style="fill:#ffffff;fill-opacity:1;fill-rule:nonzero;stroke:none"
           id="path66" /><g
           id="g68"
           transform="matrix(7.874016e-5,0,0,-7.874016e-5,290.6269,55.21915)"><path
             d="M 0,0 H 640193 V 364861 H 0 Z"
             style="fill:none;stroke:#000000;stroke-width:12700;stroke-linecap:butt;stroke-linejoin:miter;stroke-miterlimit:8;stroke-dasharray:none;stroke-opacity:1"
             id="path70" /></g><g
           id="g72"
           transform="matrix(0.24,0,0,0.24,307.3964,-278.36)"><text
             transform="matrix(1,0,0,-1,0,1304)"
             style="font-variant:normal;font-weight:normal;font-size:75px;font-family:Cambria;-inkscape-font-specification:CambriaMath;writing-mode:lr-tb;fill:#000000;fill-opacity:1;fill-rule:nonzero;stroke:none"
             id="text76"><tspan
               x="0"
               y="0"
               id="tspan74">!</tspan></text></g><g
           id="g78"
           transform="matrix(0.24,0,0,0.24,319.7714,-281.96)"><text
             transform="matrix(1,0,0,-1,0,1304)"
             style="font-variant:normal;font-weight:normal;font-size:54.1667px;font-family:Cambria;-inkscape-font-specification:CambriaMath;writing-mode:lr-tb;fill:#000000;fill-opacity:1;fill-rule:nonzero;stroke:none"
             id="text82"><tspan
               x="0"
               y="0"
               id="tspan80">!</tspan></text></g><path
           d="m 366.2109,26.36765 h 50.4089 v 28.72921 h -50.4089 z"
           style="fill:#ffffff;fill-opacity:1;fill-rule:nonzero;stroke:none"
           id="path84" /><g
           id="g86"
           transform="matrix(7.874016e-5,0,0,-7.874016e-5,366.2109,55.09686)"><path
             d="M 0,0 H 640193 V 364861 H 0 Z"
             style="fill:none;stroke:#000000;stroke-width:12700;stroke-linecap:butt;stroke-linejoin:miter;stroke-miterlimit:8;stroke-dasharray:none;stroke-opacity:1"
             id="path88" /></g><g
           id="g90"
           transform="matrix(0.24,0,0,0.24,380.6679,-278.36)"><text
             transform="matrix(1,0,0,-1,0,1304)"
             style="font-variant:normal;font-weight:normal;font-size:75px;font-family:Cambria;-inkscape-font-specification:CambriaMath;writing-mode:lr-tb;fill:#000000;fill-opacity:1;fill-rule:nonzero;stroke:none"
             id="text94"><tspan
               x="0"
               y="0"
               id="tspan92">!</tspan></text></g><g
           id="g96"
           transform="matrix(0.24,0,0,0.24,393.0429,-282.2)"><text
             transform="matrix(1,0,0,-1,0,1304)"
             style="font-variant:normal;font-weight:normal;font-size:54.1667px;font-family:Cambria;-inkscape-font-specification:CambriaMath;writing-mode:lr-tb;fill:#000000;fill-opacity:1;fill-rule:nonzero;stroke:none"
             id="text100"><tspan
               x="0"
               y="0"
               id="tspan98">&quot;</tspan></text></g><path
           d="m 480.3238,26.36765 h 50.4089 v 28.72921 h -50.4089 z"
           style="fill:#ffffff;fill-opacity:1;fill-rule:nonzero;stroke:none"
           id="path102" /><g
           id="g104"
           transform="matrix(7.874016e-5,0,0,-7.874016e-5,480.3238,55.09686)"><path
             d="M 0,0 H 640193 V 364861 H 0 Z"
             style="fill:none;stroke:#000000;stroke-width:12700;stroke-linecap:butt;stroke-linejoin:miter;stroke-miterlimit:8;stroke-dasharray:none;stroke-opacity:1"
             id="path106" /></g><g
           id="g108"
           transform="matrix(0.24,0,0,0.24,493.7182,-278.36)"><text
             transform="matrix(1,0,0,-1,0,1304)"
             style="font-variant:normal;font-weight:normal;font-size:75px;font-family:Cambria;-inkscape-font-specification:CambriaMath;writing-mode:lr-tb;fill:#000000;fill-opacity:1;fill-rule:nonzero;stroke:none"
             id="text112"><tspan
               x="0"
               y="0"
               id="tspan110">!</tspan></text></g><g
           id="g114"
           transform="matrix(0.24,0,0,0.24,506.0932,-282.2)"><text
             transform="matrix(1,0,0,-1,0,1304)"
             style="font-variant:normal;font-weight:normal;font-size:54.1667px;font-family:Cambria;-inkscape-font-specification:CambriaMath;writing-mode:lr-tb;fill:#000000;fill-opacity:1;fill-rule:nonzero;stroke:none"
             id="text118"><tspan
               x="0"
               y="0"
               id="tspan116">#</tspan></text></g><g
           id="g120"
           transform="matrix(0.24,0,0,0.24,437.021,-274.76)"><text
             transform="matrix(1,0,0,-1,0,1304)"
             style="font-variant:normal;font-weight:bold;font-size:83.3333px;font-family:'Times New Roman';-inkscape-font-specification:TimesNewRomanPS-BoldMT;writing-mode:lr-tb;fill:#000000;fill-opacity:1;fill-rule:nonzero;stroke:none"
             id="text124"><tspan
               x="0"
               y="0"
               id="tspan122">…</tspan></text></g><g
           id="g126"
           transform="matrix(0.24,0,0,0.24,362.0018,-94.99999)"><text
             transform="matrix(1,0,0,-1,0,1304)"
             style="font-variant:normal;font-weight:bold;font-size:75px;font-family:DengXian;-inkscape-font-specification:DengXian-Bold;writing-mode:lr-tb;fill:#c00000;fill-opacity:1;fill-rule:nonzero;stroke:none"
             id="text130"><tspan
               x="0 75"
               y="0"
               id="tspan128">电费</tspan></text></g><g
           id="g132"
           transform="matrix(0.24,0,0,0.24,362.0018,-117.08)"><text
             transform="matrix(1,0,0,-1,0,1304)"
             style="font-variant:normal;font-weight:bold;font-size:75px;font-family:DengXian;-inkscape-font-specification:DengXian-Bold;writing-mode:lr-tb;fill:#c00000;fill-opacity:1;fill-rule:nonzero;stroke:none"
             id="text136"><tspan
               x="0 75"
               y="0"
               id="tspan134">支付</tspan></text></g><g
           id="g138"
           transform="matrix(0.24,0,0,0.24,361.7011,-209)"><text
             transform="matrix(1,0,0,-1,0,1304)"
             style="font-variant:normal;font-weight:bold;font-size:75px;font-family:DengXian;-inkscape-font-specification:DengXian-Bold;writing-mode:lr-tb;fill:#c00000;fill-opacity:1;fill-rule:nonzero;stroke:none"
             id="text142"><tspan
               x="0 75"
               y="0"
               id="tspan140">充电</tspan></text></g><g
           id="g144"
           transform="matrix(0.24,0,0,0.24,361.7011,-231.08)"><text
             transform="matrix(1,0,0,-1,0,1304)"
             style="font-variant:normal;font-weight:bold;font-size:75px;font-family:DengXian;-inkscape-font-specification:DengXian-Bold;writing-mode:lr-tb;fill:#c00000;fill-opacity:1;fill-rule:nonzero;stroke:none"
             id="text148"><tspan
               x="0 75"
               y="0"
               id="tspan146">需求</tspan></text></g><path
           d="m 559.1219,43.8704 h 18 l -1.75,-1.75 v 228.6721 l 1.75,-1.75 h -10.88 v 3.5 h 12.63 V 40.3704 h -19.75 z m 8.87,221.6721 -10.5,5.25 10.5,5.25 z"
           style="fill:#7f7f7f;fill-opacity:1;fill-rule:nonzero;stroke:none"
           id="path150" /><g
           id="g152"
           transform="matrix(0,-0.24,0.24,0,275.2869,195.4)"><text
             transform="matrix(1,0,0,-1,0,1304)"
             style="font-variant:normal;font-weight:bold;font-size:75px;font-family:DengXian;-inkscape-font-specification:DengXian-Bold;writing-mode:lr-tb;fill:#c00000;fill-opacity:1;fill-rule:nonzero;stroke:none"
             id="text156"><tspan
               x="0 75 150 225"
               y="0"
               id="tspan154">电费抽成</tspan></text></g><g
           id="g158"
           transform="matrix(0.24,0,0,0.24,29.24598,-49.39999)"><text
             transform="matrix(1,0,0,-1,0,1304)"
             style="font-variant:normal;font-weight:bold;font-size:75px;font-family:'Times New Roman';-inkscape-font-specification:TimesNewRomanPS-BoldMT;writing-mode:lr-tb;fill:#000000;fill-opacity:1;fill-rule:nonzero;stroke:none"
             id="text162"><tspan
               x="0 41.669998 66.667503 104.1675 141.6675 174.9975 193.7475"
               y="0"
               id="tspan160">Stage Ⅰ</tspan></text></g><g
           id="g164"
           transform="matrix(0.24,0,0,0.24,108.5376,-48.91999)"><text
             transform="matrix(1,0,0,-1,0,1304)"
             style="font-variant:normal;font-weight:bold;font-size:75px;font-family:'Times New Roman';-inkscape-font-specification:TimesNewRomanPS-BoldMT;writing-mode:lr-tb;fill:#c00000;fill-opacity:1;fill-rule:nonzero;stroke:none"
             id="text168"><tspan
               x="0 50.002499 83.332497 120.8325 162.5025 195.8325"
               y="0"
               id="tspan166">Leader</tspan></text></g><g
           id="g170"
           transform="matrix(7.874016e-5,0,0,-7.874016e-5,20.79504,293.8796)"><path
             d="M 0,0 H 2077065 V 604713 H 0 Z"
             style="fill:none;stroke:#7f7f7f;stroke-width:19050;stroke-linecap:butt;stroke-linejoin:miter;stroke-miterlimit:8;stroke-dasharray:none;stroke-opacity:1"
             id="path172" /></g><path
           d="M 90.00953,133.0515 H 182.9468 V 178.628 H 90.00953 Z"
           style="fill:#f2f2f2;fill-opacity:1;fill-rule:nonzero;stroke:none"
           id="path174" /><g
           id="g176"
           transform="matrix(0.24,0,0,0.24,24.6889,-163.4)"><text
             transform="matrix(1,0,0,-1,0,1304)"
             style="font-variant:normal;font-weight:bold;font-size:75px;font-family:'Times New Roman';-inkscape-font-specification:TimesNewRomanPS-BoldMT;writing-mode:lr-tb;fill:#000000;fill-opacity:1;fill-rule:nonzero;stroke:none"
             id="text180"><tspan
               x="0 41.669998 66.667503 104.1675 141.6675 174.9975 193.7475 222.91499"
               y="0"
               id="tspan178">Stage IⅠ</tspan></text></g><g
           id="g182"
           transform="matrix(0.24,0,0,0.24,91.22055,-162.92)"><text
             transform="matrix(1,0,0,-1,0,1304)"
             style="font-variant:normal;font-weight:bold;font-size:75px;font-family:'Times New Roman';-inkscape-font-specification:TimesNewRomanPS-BoldMT;writing-mode:lr-tb;fill:#c00000;fill-opacity:1;fill-rule:nonzero;stroke:none"
             id="text186"><tspan
               x="0 41.669998 83.339996"
               y="0"
               id="tspan184">Sub</tspan></text></g><g
           id="g188"
           transform="matrix(0.24,0,0,0.24,121.2205,-162.92)"><text
             transform="matrix(1,0,0,-1,0,1304)"
             style="font-variant:normal;font-weight:bold;font-size:75px;font-family:'Times New Roman';-inkscape-font-specification:TimesNewRomanPS-BoldMT;writing-mode:lr-tb;fill:#c00000;fill-opacity:1;fill-rule:nonzero;stroke:none"
             id="text192"><tspan
               x="0"
               y="0"
               id="tspan190">-</tspan></text></g><g
           id="g194"
           transform="matrix(0.24,0,0,0.24,127.2205,-162.92)"><text
             transform="matrix(1,0,0,-1,0,1304)"
             style="font-variant:normal;font-weight:bold;font-size:75px;font-family:'Times New Roman';-inkscape-font-specification:TimesNewRomanPS-BoldMT;writing-mode:lr-tb;fill:#c00000;fill-opacity:1;fill-rule:nonzero;stroke:none"
             id="text198"><tspan
               x="0 50.002499 83.332497 120.8325 162.5025 195.8325"
               y="0"
               id="tspan196">Leader</tspan></text></g><g
           id="g200"
           transform="matrix(7.874016e-5,0,0,-7.874016e-5,20.79504,179.9463)"><path
             d="M 0,0 H 2077065 V 604713 H 0 Z"
             style="fill:none;stroke:#7f7f7f;stroke-width:19050;stroke-linecap:butt;stroke-linejoin:miter;stroke-miterlimit:8;stroke-dasharray:none;stroke-opacity:1"
             id="path202" /></g><path
           d="M 89.98449,18.02992 H 182.9218 V 63.60637 H 89.98449 Z"
           style="fill:#f2f2f2;fill-opacity:1;fill-rule:nonzero;stroke:none"
           id="path204" /><g
           id="g206"
           transform="matrix(0.24,0,0,0.24,22.26157,-278.36)"><text
             transform="matrix(1,0,0,-1,0,1304)"
             style="font-variant:normal;font-weight:bold;font-size:75px;font-family:'Times New Roman';-inkscape-font-specification:TimesNewRomanPS-BoldMT;writing-mode:lr-tb;fill:#000000;fill-opacity:1;fill-rule:nonzero;stroke:none"
             id="text210"><tspan
               x="0 41.669998 66.667503 104.1675 141.6675"
               y="0"
               id="tspan208">Stage</tspan></text></g><g
           id="g212"
           transform="matrix(0.24,0,0,0.24,68.76157,-278.36)"><text
             transform="matrix(1,0,0,-1,0,1304)"
             style="font-variant:normal;font-weight:bold;font-size:75px;font-family:'Times New Roman';-inkscape-font-specification:TimesNewRomanPS-BoldMT;writing-mode:lr-tb;fill:#000000;fill-opacity:1;fill-rule:nonzero;stroke:none"
             id="text216"><tspan
               x="0"
               y="0"
               id="tspan214">Ⅲ</tspan></text></g><g
           id="g218"
           transform="matrix(0.24,0,0,0.24,99.39835,-277.88)"><text
             transform="matrix(1,0,0,-1,0,1304)"
             style="font-variant:normal;font-weight:bold;font-size:75px;font-family:'Times New Roman';-inkscape-font-specification:TimesNewRomanPS-BoldMT;writing-mode:lr-tb;fill:#c00000;fill-opacity:1;fill-rule:nonzero;stroke:none"
             id="text222"><tspan
               x="0 45.8325 83.332497 104.1675 125.0025 162.5025 216.6675 249.9975 283.32751"
               y="0"
               id="tspan220">Followers</tspan></text></g><g
           id="g224"
           transform="matrix(7.874016e-5,0,0,-7.874016e-5,20.77,64.92473)"><path
             d="M 0,0 H 2077065 V 604713 H 0 Z"
             style="fill:none;stroke:#7f7f7f;stroke-width:19050;stroke-linecap:butt;stroke-linejoin:miter;stroke-miterlimit:8;stroke-dasharray:none;stroke-opacity:1"
             id="path226" /></g><path
           d="m 253.1314,106.3427 12.6023,12.6023 12.6022,-12.6023 h -6.3011 V 75.72811 h -12.6023 v 30.61459 z"
           style="fill:#7f7f7f;fill-opacity:1;fill-rule:evenodd;stroke:none"
           id="path228" /><path
           d="m 467.0668,106.3427 12.6022,12.6023 12.6023,-12.6023 h -6.3012 V 75.72811 h -12.6022 v 30.61459 z"
           style="fill:#7f7f7f;fill-opacity:1;fill-rule:evenodd;stroke:none"
           id="path230" /><path
           d="m 253.0193,220.8268 12.6023,12.6023 12.6022,-12.6023 h -6.3011 v -30.6146 h -12.6022 v 30.6146 z"
           style="fill:#d0cece;fill-opacity:1;fill-rule:evenodd;stroke:none"
           id="path232" /><path
           d="m 466.9547,220.8268 12.6023,12.6023 12.6022,-12.6023 h -6.3011 v -30.6146 h -12.6023 v 30.6146 z"
           style="fill:#d0cece;fill-opacity:1;fill-rule:evenodd;stroke:none"
           id="path234" /><g
           id="g236"
           transform="matrix(0.24,0,0,0.24,205.0897,-278.36)"><text
             transform="matrix(1,0,0,-1,0,1304)"
             style="font-variant:normal;font-weight:normal;font-size:75px;font-family:'Microsoft MHei';-inkscape-font-specification:MicrosoftYaHei;writing-mode:lr-tb;fill:#000000;fill-opacity:1;fill-rule:nonzero;stroke:none"
             id="text240"><tspan
               x="0 75 150 225"
               y="0"
               id="tspan238">充电用户</tspan></text></g></g></g></g></svg>
