<svg data-v-0dd9719b="" version="1.0" xmlns="http://www.w3.org/2000/svg" xmlns:xlink="http://www.w3.org/1999/xlink" width="100%" height="100%" viewBox="0 0 340.000000 250.000000" preserveAspectRatio="xMidYMid meet" color-interpolation-filters="sRGB" style="margin: auto;"> <rect data-v-0dd9719b="" x="0" y="0" width="100%" height="100%" fill="#030f2b" fill-opacity="1" class="background"></rect> <rect data-v-0dd9719b="" x="0" y="0" width="100%" height="100%" fill="url(#watermark)" fill-opacity="1" class="watermarklayer"></rect> <g data-v-0dd9719b="" fill="#ffffff" class="icon-text-wrapper icon-svg-group iconsvg" transform="translate(105.80000305175781,91.41875076293945)"><g class="iconsvg-imagesvg" transform="translate(0,16.985063552856445)"><g><rect fill="#ffffff" fill-opacity="0" stroke-width="2" x="0" y="0" width="128.40000000000006" height="21.014936316886917" class="image-rect"></rect> <svg filter="url(#colors5584503660)" x="0" y="0" width="128.40000000000006" height="21.014936316886917" filtersec="colorsf509741510" class="image-svg-svg primary" style="overflow: visible;"><svg xmlns="http://www.w3.org/2000/svg" xmlns:xlink="http://www.w3.org/1999/xlink" version="1.1" x="0px" y="0px" viewBox="1.0800046920776367 41.62599563598633 97.82624816894531 16.011005401611328" enable-background="new 0 0 100 100" xml:space="preserve"><g><path fill="none" d="M43.137,52.401c-0.065-0.034-0.129-0.072-0.191-0.109C43.008,52.329,43.071,52.367,43.137,52.401z"></path><path fill="none" d="M42.616,52.074c-0.131-0.095-0.254-0.194-0.366-0.301C42.362,51.88,42.485,51.979,42.616,52.074z"></path><path fill="none" d="M42.858,52.238c-0.062-0.038-0.123-0.078-0.18-0.119C42.735,52.16,42.796,52.2,42.858,52.238z"></path><path fill="none" d="M43.915,52.735c-0.073-0.025-0.145-0.051-0.215-0.077C43.771,52.685,43.842,52.71,43.915,52.735z"></path><path fill="none" d="M43.601,52.617c-0.151-0.062-0.298-0.13-0.438-0.203C43.303,52.487,43.449,52.555,43.601,52.617z"></path><path fill="none" d="M45.187,50.185c-0.012,0.131-0.03,0.262-0.051,0.392C45.157,50.446,45.175,50.316,45.187,50.185z"></path><path fill="none" d="M42.249,51.772c-0.054-0.051-0.104-0.103-0.154-0.155C42.146,51.67,42.195,51.722,42.249,51.772z"></path><path fill="none" d="M41.535,50.748c-0.084-0.214-0.139-0.437-0.156-0.668C41.397,50.311,41.451,50.534,41.535,50.748z"></path><path fill="none" d="M41.895,51.38c-0.141-0.186-0.255-0.382-0.342-0.588C41.639,50.998,41.754,51.194,41.895,51.38z"></path><path fill="none" d="M42.048,51.565c-0.047-0.054-0.094-0.108-0.138-0.164C41.954,51.457,42.001,51.512,42.048,51.565z"></path><path fill="none" d="M36.611,42.46c0.142,0.007,0.284,0.015,0.425,0.027C36.895,42.475,36.753,42.466,36.611,42.46z"></path><path fill="none" d="M56.128,45.436c0.004-0.004,0.008-0.008,0.013-0.013C56.136,45.428,56.132,45.432,56.128,45.436z"></path><path fill="none" d="M45.212,49.768L45.212,49.768c-0.003,0.136-0.012,0.271-0.024,0.405C45.2,50.039,45.209,49.904,45.212,49.768z   "></path><path fill="none" d="M44.22,45.355c-0.007-0.009-0.015-0.019-0.022-0.028C44.205,45.337,44.212,45.346,44.22,45.355z"></path><path fill="none" d="M44.478,45.686c0.01,0.013,0.019,0.024,0.027,0.036c-0.012-0.016-0.024-0.033-0.036-0.048   C44.472,45.677,44.475,45.682,44.478,45.686z"></path><polygon fill="none" points="39.88,43.104 39.88,43.104 39.882,43.105  "></polygon><path fill="none" d="M38.617,42.734c0.165,0.038,0.328,0.078,0.488,0.122C38.944,42.812,38.781,42.772,38.617,42.734z"></path><path fill="none" d="M36.058,42.446c0.164,0,0.326,0.003,0.488,0.01C36.384,42.449,36.222,42.446,36.058,42.446z"></path><polygon fill="none" points="41.411,49.747 41.411,49.748 41.411,49.747  "></polygon><ellipse fill="none" cx="37.974" cy="46.026" rx="0.005" ry="0"></ellipse><ellipse fill="none" cx="37.492" cy="45.91" rx="0.006" ry="0"></ellipse><rect x="37.85" y="45.992" fill="none" width="0.001" height="0.001"></rect><polygon fill="none" points="36.983,45.828 36.993,45.829 37.001,45.83 36.993,45.829  "></polygon><rect x="36.853" y="45.811" fill="none" width="0.002" height="0.002"></rect><path fill="none" d="M37.664,52.705c-0.022-0.041-0.047-0.082-0.069-0.125c-0.014-0.024-0.025-0.052-0.038-0.077   c-0.053-0.11-0.104-0.221-0.151-0.333c-0.016-0.037-0.031-0.076-0.046-0.113c-0.033-0.083-0.061-0.166-0.09-0.25   c-0.01-0.029-0.021-0.058-0.031-0.087C37.35,52.059,37.494,52.388,37.664,52.705C37.664,52.705,37.664,52.705,37.664,52.705z"></path><rect x="36.74" y="45.8" fill="none" width="0.002" height="0.003"></rect><rect x="41.253" y="48.7" fill="none" width="0.001" height="0"></rect><polygon fill="none" points="41.15,48.442 41.151,48.443 41.15,48.442  "></polygon><rect x="41.355" y="49.068" fill="none" width="0" height="0"></rect><rect x="41.224" y="48.62" fill="none" width="0" height="0"></rect><path fill="none" d="M26.434,44.681c-0.016-0.02-0.032-0.04-0.048-0.059C26.401,44.641,26.418,44.661,26.434,44.681z"></path><path fill="none" d="M26.134,44.323c-0.017-0.019-0.033-0.037-0.049-0.056C26.101,44.286,26.117,44.304,26.134,44.323z"></path><path fill="none" d="M24.643,42.991L24.643,42.991c0.404-0.131,0.821-0.241,1.251-0.327C25.464,42.75,25.047,42.859,24.643,42.991z   "></path><rect x="36.594" y="45.787" fill="none" width="0.001" height="0.002"></rect><path fill="none" d="M26.703,45.043c-0.008-0.011-0.015-0.021-0.023-0.032C26.688,45.022,26.695,45.033,26.703,45.043z"></path><path fill="none" d="M27.666,45.784c-0.006,0.001-0.013,0.001-0.021,0.001C27.653,45.785,27.66,45.785,27.666,45.784z"></path><polygon fill="none" points="36.593,45.788 36.593,45.788 36.591,45.788  "></polygon><path fill="none" d="M26.878,42.516c0.112-0.013,0.224-0.025,0.338-0.034C27.102,42.491,26.99,42.503,26.878,42.516z"></path><path fill="none" d="M25.767,43.934c0.009,0.009,0.018,0.019,0.027,0.028C25.785,43.953,25.776,43.943,25.767,43.934z"></path><path fill="none" d="M25.902,42.663c0.14-0.028,0.281-0.053,0.425-0.076C26.184,42.61,26.042,42.635,25.902,42.663z"></path><path fill="none" d="M26.375,42.581c0.13-0.021,0.261-0.039,0.393-0.054C26.635,42.542,26.505,42.561,26.375,42.581z"></path><path fill="none" d="M42.575,52.776c0.044,0.028,0.089,0.054,0.135,0.081c0.001,0,0.002,0,0.002,0.001   c-0.047-0.027-0.093-0.054-0.139-0.083C42.574,52.776,42.575,52.776,42.575,52.776z"></path><path fill="none" d="M59.485,49.016c0.025-0.046,0.051-0.093,0.079-0.138C59.536,48.923,59.51,48.969,59.485,49.016z"></path><path fill="none" d="M60.034,48.293c0.108-0.106,0.225-0.207,0.352-0.302C60.259,48.087,60.143,48.188,60.034,48.293z"></path><path fill="none" d="M59.88,48.457c0.04-0.044,0.08-0.089,0.124-0.131C59.96,48.368,59.919,48.412,59.88,48.457z"></path><path fill="none" d="M60.613,47.829c0.14-0.092,0.288-0.178,0.443-0.258C60.901,47.651,60.753,47.737,60.613,47.829z"></path><path fill="none" d="M59.591,48.833c0.076-0.117,0.16-0.23,0.257-0.34C59.751,48.603,59.667,48.716,59.591,48.833z"></path><path fill="none" d="M60.414,47.97c0.056-0.043,0.115-0.084,0.176-0.125C60.529,47.886,60.47,47.927,60.414,47.97z"></path><path fill="none" d="M44.966,53.606c0.001,0,0.003,0,0.004,0c-0.012-0.001-0.023-0.003-0.035-0.004   C44.945,53.604,44.956,53.604,44.966,53.606z"></path><path fill="none" d="M61.07,47.564c0.075-0.038,0.152-0.075,0.231-0.11C61.223,47.489,61.146,47.526,61.07,47.564z"></path><path fill="none" d="M44.603,53.546c0,0,0.001,0,0.002,0.001c-0.009-0.002-0.018-0.004-0.026-0.006   C44.587,53.543,44.595,53.545,44.603,53.546z"></path><path fill="none" d="M45.195,53.633c0.018,0.002,0.035,0.004,0.053,0.006c-0.019-0.002-0.038-0.004-0.057-0.006   C45.193,53.633,45.194,53.633,45.195,53.633z"></path><path fill="none" d="M58.164,43.848c-0.033,0.02-0.067,0.039-0.101,0.059C58.097,43.887,58.131,43.868,58.164,43.848z"></path><path fill="none" d="M57.722,44.119c-0.023,0.016-0.048,0.031-0.072,0.046C57.674,44.15,57.698,44.135,57.722,44.119z"></path><path fill="none" d="M55.418,52.731c-0.163-0.325-0.296-0.661-0.397-1.005C55.122,52.07,55.255,52.406,55.418,52.731z"></path><path fill="none" d="M43.65,53.287c0.006,0.002,0.011,0.004,0.017,0.006c-0.007-0.002-0.014-0.005-0.021-0.007   C43.647,53.286,43.648,53.287,43.65,53.287z"></path><path fill="none" d="M58.604,43.608c-0.031,0.016-0.062,0.033-0.094,0.049C58.543,43.641,58.573,43.624,58.604,43.608z"></path><path fill="none" d="M54.921,51.339c-0.023-0.105-0.045-0.21-0.062-0.316C54.876,51.129,54.897,51.233,54.921,51.339z"></path><path fill="none" d="M54.848,50.93c-0.015-0.089-0.028-0.178-0.037-0.269C54.819,50.752,54.833,50.841,54.848,50.93z"></path><path fill="none" d="M54.8,50.493c-0.005-0.066-0.011-0.131-0.013-0.197C54.789,50.362,54.796,50.427,54.8,50.493z"></path><path fill="none" d="M59.374,49.246c0.026-0.062,0.055-0.123,0.084-0.182C59.429,49.123,59.4,49.184,59.374,49.246z"></path><path fill="none" d="M55.019,51.72c-0.033-0.114-0.063-0.228-0.09-0.343C54.955,51.492,54.985,51.605,55.019,51.72z"></path><path fill="none" d="M41.065,51.199C41.065,51.2,41.065,51.2,41.065,51.199c-0.005-0.011-0.011-0.023-0.017-0.036   C41.054,51.175,41.06,51.188,41.065,51.199z"></path><path fill="none" d="M37.181,48.351c0.001-0.004,0.002-0.008,0.003-0.013c0.041-0.139,0.086-0.276,0.137-0.413   c0.007-0.018,0.014-0.036,0.021-0.054c0.048-0.126,0.1-0.25,0.156-0.373c0.005-0.011,0.01-0.023,0.016-0.036   c0,0,0-0.001,0.001-0.002c-0.157,0.338-0.28,0.687-0.372,1.044C37.155,48.454,37.166,48.402,37.181,48.351z"></path><path fill="none" d="M37.959,46.657C37.959,46.657,37.959,46.656,37.959,46.657c-0.165,0.255-0.311,0.521-0.438,0.792   C37.647,47.178,37.794,46.913,37.959,46.657z"></path><path fill="none" d="M39.931,55.202c-0.008-0.006-0.017-0.012-0.026-0.019c-0.266-0.189-0.52-0.392-0.756-0.604   c-0.017-0.016-0.035-0.031-0.052-0.049c-0.108-0.099-0.214-0.2-0.315-0.306c-0.014-0.014-0.027-0.027-0.041-0.04   c-0.113-0.121-0.223-0.242-0.327-0.366c-0.004-0.004-0.007-0.01-0.011-0.015c-0.086-0.104-0.167-0.211-0.247-0.318   c-0.008-0.011-0.017-0.021-0.024-0.031c-0.021-0.029-0.041-0.058-0.061-0.086c-0.027-0.039-0.052-0.08-0.079-0.12l0,0   C38.49,53.989,39.146,54.65,39.931,55.202z"></path><path fill="none" d="M37.006,49.186c0.015-0.113,0.034-0.226,0.056-0.337c0.005-0.025,0.009-0.051,0.014-0.076   c0-0.001,0.001-0.003,0.001-0.004c-0.038,0.179-0.065,0.361-0.086,0.545C36.996,49.271,37,49.228,37.006,49.186z"></path><path fill="none" d="M41.113,51.29c0.015,0.026,0.028,0.053,0.044,0.079l0,0C41.141,51.344,41.127,51.316,41.113,51.29   C41.112,51.29,41.112,51.29,41.113,51.29z"></path><path fill="none" d="M37.21,51.635c-0.043-0.141-0.081-0.284-0.114-0.429c-0.008-0.038-0.016-0.076-0.023-0.115   c-0.023-0.111-0.042-0.223-0.059-0.336c-0.006-0.044-0.012-0.085-0.017-0.128c0.043,0.362,0.121,0.716,0.23,1.058   C37.222,51.669,37.216,51.652,37.21,51.635z"></path><path fill="none" d="M40.849,55.769c-0.141-0.077-0.28-0.154-0.415-0.236C40.569,55.614,40.708,55.691,40.849,55.769   C40.849,55.769,40.849,55.769,40.849,55.769z"></path><path fill="none" d="M36.958,49.749c0.002-0.043,0.005-0.085,0.007-0.127c-0.002,0.043-0.006,0.085-0.007,0.129   C36.958,49.75,36.958,49.75,36.958,49.749z"></path><path fill="none" d="M40.422,55.525c-0.009-0.006-0.017-0.011-0.026-0.017c-0.067-0.042-0.132-0.086-0.199-0.129   c-0.074-0.048-0.149-0.095-0.221-0.145c-0.01-0.007-0.021-0.015-0.031-0.021c0.157,0.11,0.32,0.216,0.487,0.317   C40.429,55.529,40.426,55.527,40.422,55.525z"></path><path fill="none" d="M41.208,51.455c0.016,0.026,0.033,0.054,0.05,0.079c0,0.001,0,0.001,0,0.001s0,0,0,0.001   c-0.018-0.027-0.035-0.055-0.052-0.083C41.207,51.454,41.208,51.454,41.208,51.455z"></path><polygon fill="none" points="41.543,51.911 41.545,51.914 41.546,51.914 41.547,51.915 41.543,51.911  "></polygon><path fill="none" d="M42.389,52.657C42.39,52.657,42.39,52.657,42.389,52.657c0.045,0.03,0.089,0.059,0.135,0.088   c0.001,0,0.002,0,0.003,0.001c0,0.001,0.001,0.001,0.002,0.002c-0.048-0.03-0.095-0.062-0.142-0.092   C42.388,52.656,42.389,52.657,42.389,52.657z"></path><rect x="41.375" y="49.18" fill="none" width="0.001" height="0"></rect><path fill="none" d="M42.868,52.945c0.012,0.007,0.023,0.012,0.036,0.019l0,0c-0.015-0.008-0.028-0.015-0.042-0.023   C42.864,52.941,42.866,52.943,42.868,52.945z"></path><path fill="none" d="M42.934,52.979c0.056,0.029,0.113,0.058,0.17,0.085l0,0c-0.058-0.027-0.116-0.057-0.171-0.086   C42.933,52.979,42.934,52.979,42.934,52.979z"></path><path fill="none" d="M41.891,52.266c0.003,0.003,0.007,0.007,0.01,0.011c0.026,0.023,0.053,0.045,0.08,0.067   c0,0.001,0,0.001,0.001,0.002C41.952,52.318,41.92,52.294,41.891,52.266L41.891,52.266z"></path><polygon fill="none" points="41.718,52.1 41.718,52.101 41.713,52.095  "></polygon><path fill="none" d="M42.22,52.536L42.22,52.536c0.042,0.03,0.084,0.062,0.127,0.091l0,0c-0.043-0.03-0.086-0.061-0.128-0.092   C42.219,52.535,42.219,52.536,42.22,52.536z"></path><path fill="none" d="M43.371,53.18c0.01,0.004,0.021,0.009,0.031,0.013c-0.011-0.004-0.021-0.009-0.032-0.013   C43.37,53.18,43.37,53.18,43.371,53.18z"></path><path fill="none" d="M41.313,51.615c0.01,0.016,0.021,0.03,0.032,0.045c0,0.001,0,0.001,0,0.001   c-0.012-0.016-0.023-0.032-0.034-0.048C41.312,51.614,41.313,51.615,41.313,51.615z"></path><path fill="none" d="M39.879,43.104c-0.03-0.011-0.061-0.021-0.091-0.032c-0.091-0.032-0.182-0.063-0.274-0.092   c0.092,0.029,0.183,0.06,0.274,0.092C39.818,43.083,39.849,43.093,39.879,43.104z"></path><path fill="none" d="M22.792,49.406c-0.001,0.009-0.002,0.019-0.003,0.028C22.79,49.425,22.791,49.416,22.792,49.406z"></path><path fill="none" d="M22.813,49.216c-0.001,0.004-0.002,0.008-0.002,0.012C22.812,49.224,22.812,49.22,22.813,49.216z"></path><path fill="none" d="M21.031,46.235c0.071,0.037,0.14,0.076,0.208,0.116C21.171,46.311,21.102,46.272,21.031,46.235z"></path><polygon fill="none" points="22.901,48.826 22.901,48.823 22.901,48.826  "></polygon><path fill="none" d="M21.994,46.909c0.005,0.005,0.009,0.009,0.014,0.014C22.003,46.918,21.999,46.914,21.994,46.909z"></path><path fill="none" d="M36.369,53.503c0.028-0.001,0.056-0.003,0.083-0.004C36.425,53.5,36.397,53.502,36.369,53.503z"></path><path fill="none" d="M39.007,55.256c-0.027-0.022-0.054-0.045-0.081-0.066c0.026,0.021,0.051,0.042,0.077,0.063   C39.004,55.254,39.006,55.255,39.007,55.256z"></path><path fill="none" d="M36.683,53.483c0.027-0.003,0.055-0.005,0.083-0.008C36.738,53.479,36.71,53.48,36.683,53.483z"></path><path fill="none" d="M39.825,55.861c0.002,0.001,0.004,0.003,0.006,0.004c-0.04-0.025-0.081-0.051-0.121-0.078h0   C39.748,55.812,39.787,55.838,39.825,55.861z"></path><path fill="none" d="M37.005,53.45c0.02-0.004,0.04-0.007,0.06-0.009C37.045,53.443,37.025,53.446,37.005,53.45z"></path><path fill="none" d="M38.262,54.557c-0.013-0.013-0.025-0.027-0.038-0.041c0.012,0.013,0.024,0.027,0.037,0.039   C38.261,54.556,38.262,54.556,38.262,54.557z"></path><path fill="none" d="M40.15,56.073c-0.461,0.181-0.943,0.333-1.445,0.452C39.208,56.406,39.689,56.254,40.15,56.073z"></path><path fill="none" d="M21.55,55.503c-0.103,0.032-0.205,0.064-0.31,0.094c-0.046,0.013-0.093,0.025-0.14,0.038   c0.186-0.051,0.371-0.104,0.552-0.163c0,0-0.001,0-0.001,0C21.618,55.483,21.584,55.493,21.55,55.503z"></path><path fill="none" d="M38.696,56.527c-0.153,0.038-0.308,0.07-0.463,0.1C38.388,56.598,38.543,56.565,38.696,56.527z"></path><path fill="none" d="M20.304,45.919L20.304,45.919c0.109,0.039,0.216,0.081,0.32,0.124C20.519,46,20.413,45.957,20.304,45.919z"></path><path fill="none" d="M37.6,56.729c-0.116,0.016-0.233,0.028-0.351,0.041C37.367,56.758,37.484,56.745,37.6,56.729z"></path><path fill="none" d="M36.573,56.821c-0.17,0.008-0.342,0.013-0.515,0.013C36.231,56.834,36.402,56.829,36.573,56.821z"></path><path fill="none" d="M20.717,46.084c0.074,0.032,0.146,0.066,0.217,0.101C20.863,46.15,20.791,46.116,20.717,46.084z"></path><path fill="none" d="M37.085,56.788c-0.119,0.011-0.239,0.017-0.36,0.024C36.846,56.805,36.966,56.799,37.085,56.788z"></path><path fill="none" d="M37.93,54.183C37.931,54.183,37.931,54.183,37.93,54.183c-0.012-0.017-0.025-0.033-0.039-0.05   c0,0.001,0,0.001,0,0.001C37.905,54.15,37.917,54.166,37.93,54.183z"></path><path fill="none" d="M81.657,46.013c-0.133,0.006-0.264,0.018-0.394,0.03C81.394,46.03,81.524,46.019,81.657,46.013z"></path><path fill="none" d="M80.239,42.823c0.039-0.006,0.078-0.012,0.117-0.017C80.317,42.811,80.278,42.817,80.239,42.823z"></path><path fill="none" d="M80.042,46.275c0.374-0.105,0.767-0.183,1.174-0.228c-0.408,0.044-0.802,0.12-1.176,0.225   C80.04,46.273,80.042,46.274,80.042,46.275z"></path><path fill="none" d="M72.706,49.544c0.001-0.007,0.002-0.014,0.003-0.021C72.708,49.531,72.707,49.538,72.706,49.544z"></path><path fill="none" d="M72.685,49.928c0-0.019,0.002-0.037,0.003-0.056C72.687,49.891,72.685,49.909,72.685,49.928z"></path><path fill="none" d="M80.794,42.75c0.049-0.005,0.098-0.011,0.147-0.016C80.892,42.739,80.843,42.745,80.794,42.75z"></path><path fill="none" d="M44.03,52.771c0.075,0.024,0.15,0.048,0.227,0.068c0.441-0.695,0.743-1.453,0.877-2.253   c-0.134,0.8-0.437,1.558-0.877,2.253C44.18,52.819,44.104,52.796,44.03,52.771z"></path><path fill="none" d="M76.488,50.13c-0.005-0.098-0.003-0.195,0.003-0.292c0,0,0,0,0,0C76.485,49.935,76.483,50.032,76.488,50.13z"></path><path fill="none" d="M21.595,46.581c0.137,0.099,0.265,0.205,0.383,0.315c-0.194-0.182-0.417-0.349-0.661-0.499   c0.09,0.055,0.18,0.113,0.264,0.174C21.585,46.574,21.589,46.578,21.595,46.581z"></path><path fill="none" d="M22.883,48.556c0.002,0.019,0.005,0.038,0.006,0.057c0.007,0.069,0.012,0.14,0.012,0.21   c0-0.162-0.019-0.321-0.052-0.477c0.003,0.014,0.005,0.027,0.008,0.04C22.868,48.441,22.877,48.499,22.883,48.556z"></path><path fill="none" d="M22.83,48.269c-0.015-0.056-0.028-0.111-0.047-0.167c0.005,0.013,0.01,0.028,0.014,0.041   C22.809,48.185,22.818,48.227,22.83,48.269z"></path><polygon fill="none" points="37.36,53.395 37.36,53.396 37.359,53.395 37.354,53.395 37.359,53.395  "></polygon><path fill="none" d="M22.703,47.892c0.006,0.016,0.013,0.031,0.019,0.046c0.005,0.011,0.008,0.021,0.012,0.032   c-0.037-0.092-0.077-0.184-0.125-0.273l0,0C22.643,47.761,22.674,47.826,22.703,47.892z"></path><rect x="40.153" y="56.071" fill="none" width="0" height="0.001"></rect><path fill="none" d="M20.784,55.714c-0.039,0.009-0.077,0.018-0.116,0.026c-0.03,0.006-0.06,0.013-0.089,0.02   c-0.087,0.02-0.174,0.037-0.262,0.053c-0.041,0.008-0.082,0.015-0.123,0.023c-0.01,0.002-0.021,0.004-0.03,0.006   c0.314-0.057,0.622-0.125,0.923-0.204c-0.008,0.002-0.017,0.004-0.025,0.006C20.969,55.668,20.877,55.691,20.784,55.714z"></path><path fill="none" d="M22.496,47.507c0.008,0.012,0.015,0.025,0.022,0.038c-0.049-0.08-0.103-0.157-0.16-0.233   c0.04,0.052,0.077,0.104,0.113,0.158C22.479,47.482,22.487,47.495,22.496,47.507z"></path><path fill="none" d="M22.185,47.104c0.054,0.06,0.107,0.121,0.155,0.184c0.001,0.002,0.003,0.004,0.005,0.006   c-0.085-0.109-0.181-0.214-0.283-0.315c0.036,0.035,0.072,0.071,0.105,0.107C22.173,47.092,22.179,47.098,22.185,47.104z"></path><path fill="none" d="M38.125,56.647c-0.125,0.021-0.25,0.043-0.377,0.062C37.875,56.69,38,56.669,38.125,56.647z"></path><path fill="none" d="M27.672,42.455c-0.083,0.003-0.164,0.009-0.246,0.015C27.508,42.464,27.589,42.458,27.672,42.455z"></path><path fill="none" d="M39.429,42.953c0.021,0.006,0.042,0.013,0.064,0.02C39.471,42.965,39.45,42.959,39.429,42.953   c-0.103-0.033-0.205-0.063-0.308-0.093c-0.002,0-0.004-0.001-0.007-0.001c0.002,0,0.005,0.001,0.007,0.001   C39.224,42.89,39.326,42.92,39.429,42.953z"></path><path fill="none" d="M38.497,42.708c-0.167-0.037-0.335-0.07-0.506-0.099c-0.305-0.052-0.616-0.092-0.932-0.119   c0.315,0.027,0.626,0.067,0.932,0.119C38.162,42.637,38.33,42.671,38.497,42.708z"></path><path fill="none" d="M41.312,43.753c-0.235-0.129-0.477-0.251-0.727-0.363c0.25,0.112,0.488,0.236,0.723,0.365   C41.31,43.754,41.311,43.753,41.312,43.753z"></path><path fill="none" d="M40.527,43.364c-0.006-0.003-0.012-0.006-0.018-0.009c-0.021-0.008-0.041-0.017-0.062-0.025   c0.021,0.008,0.041,0.017,0.062,0.025C40.515,43.358,40.521,43.361,40.527,43.364z"></path><path fill="none" d="M19.456,45.069c-0.005-0.001-0.011-0.002-0.017-0.003C19.445,45.067,19.451,45.068,19.456,45.069z"></path><path fill="none" d="M18.539,52.683c0.016-0.001,0.033-0.002,0.049-0.003c-0.143,0.008-0.286,0.014-0.431,0.014   c0.104,0,0.206-0.002,0.308-0.006C18.49,52.686,18.514,52.684,18.539,52.683z"></path><path fill="none" d="M18.651,56.006c-0.164,0.007-0.329,0.011-0.494,0.011C18.323,56.017,18.488,56.013,18.651,56.006z"></path><path fill="none" d="M18.778,52.667c0.022-0.002,0.044-0.004,0.066-0.006c0.085-0.009,0.17-0.018,0.255-0.028   c0.001,0,0.003,0,0.005-0.001c0.003,0,0.006-0.001,0.009-0.001l0,0c-0.137,0.018-0.275,0.032-0.416,0.041h0   C18.725,52.67,18.751,52.669,18.778,52.667z"></path><path fill="none" d="M41.728,43.997c0.014,0.008,0.027,0.016,0.041,0.024C41.755,44.013,41.742,44.005,41.728,43.997   c-0.135-0.085-0.274-0.166-0.416-0.244c0.115,0.064,0.228,0.131,0.339,0.199C41.677,43.968,41.704,43.981,41.728,43.997z"></path><path fill="none" d="M44.915,47.809L44.915,47.809c-0.025-0.073-0.052-0.146-0.08-0.218c-0.011-0.029-0.02-0.057-0.031-0.084   c0.011,0.027,0.021,0.056,0.031,0.084C44.863,47.663,44.89,47.735,44.915,47.809z"></path><path fill="none" d="M18.651,44.969L18.651,44.969c0.051,0.003,0.101,0.011,0.152,0.015c-0.05-0.005-0.1-0.011-0.15-0.015   C18.653,44.969,18.652,44.969,18.651,44.969z"></path><path fill="none" d="M45.1,48.504c-0.002-0.011-0.004-0.021-0.006-0.032c-0.003-0.012-0.006-0.024-0.009-0.037   c0.003,0.013,0.006,0.025,0.009,0.037C45.096,48.482,45.098,48.493,45.1,48.504z"></path><path fill="none" d="M45.014,48.137c0.005,0.021,0.011,0.042,0.016,0.062C45.023,48.178,45.019,48.157,45.014,48.137   c-0.019-0.068-0.039-0.135-0.06-0.202c-0.009-0.028-0.018-0.058-0.027-0.086c0.009,0.029,0.018,0.058,0.027,0.086   C44.975,48.001,44.995,48.069,45.014,48.137z"></path><path fill="none" d="M45.205,49.292c0.007,0.115,0.011,0.23,0.011,0.348C45.216,49.522,45.212,49.407,45.205,49.292   c-0.001-0.038-0.006-0.075-0.009-0.112c-0.002-0.034-0.006-0.067-0.01-0.1c0.003,0.033,0.007,0.066,0.01,0.1   C45.198,49.217,45.203,49.254,45.205,49.292z"></path><path fill="none" d="M42.536,44.562C42.537,44.562,42.537,44.562,42.536,44.562c0.023,0.018,0.045,0.035,0.067,0.053   c0.012,0.009,0.024,0.02,0.037,0.03c-0.013-0.01-0.025-0.021-0.037-0.03c-0.059-0.048-0.118-0.093-0.177-0.139   c-0.018-0.013-0.034-0.026-0.052-0.038c0.018,0.012,0.034,0.025,0.052,0.038C42.463,44.505,42.5,44.534,42.536,44.562z"></path><path fill="none" d="M43.146,45.09c0.026,0.025,0.052,0.052,0.078,0.078c0.004,0.004,0.008,0.009,0.013,0.014   c0.022,0.022,0.042,0.046,0.065,0.068c0.069,0.07,0.139,0.14,0.204,0.212c-0.091-0.1-0.185-0.197-0.282-0.294   C43.198,45.142,43.172,45.116,43.146,45.09c-0.052-0.05-0.106-0.099-0.16-0.147c-0.02-0.019-0.04-0.037-0.061-0.056   c0.02,0.019,0.041,0.037,0.061,0.056C43.04,44.992,43.095,45.04,43.146,45.09z"></path><path fill="none" d="M42.086,44.231c-0.021-0.015-0.044-0.031-0.067-0.045c-0.042-0.029-0.085-0.058-0.128-0.085   c0.043,0.028,0.086,0.056,0.128,0.085C42.042,44.2,42.065,44.216,42.086,44.231z"></path><path fill="none" d="M43.736,45.726c0.038,0.046,0.075,0.091,0.112,0.137c0.03,0.038,0.059,0.077,0.088,0.116   c-0.029-0.039-0.058-0.078-0.088-0.116C43.812,45.817,43.774,45.771,43.736,45.726c-0.038-0.045-0.076-0.092-0.115-0.137   c-0.013-0.015-0.025-0.028-0.038-0.042c0.013,0.015,0.025,0.028,0.038,0.042C43.661,45.634,43.698,45.68,43.736,45.726z"></path><path fill="none" d="M44.155,46.284c0.034,0.051,0.068,0.103,0.101,0.154c0.029,0.045,0.058,0.091,0.085,0.137   c0.034,0.056,0.065,0.113,0.098,0.17c0.024,0.043,0.049,0.085,0.071,0.129c0.014,0.025,0.025,0.05,0.038,0.074   c-0.013-0.024-0.024-0.049-0.038-0.074c-0.022-0.043-0.047-0.086-0.071-0.129c-0.033-0.057-0.064-0.114-0.098-0.17   c-0.028-0.046-0.056-0.091-0.085-0.137C44.223,46.387,44.189,46.335,44.155,46.284c-0.031-0.047-0.063-0.093-0.096-0.139   c-0.025-0.035-0.051-0.069-0.076-0.104c0.025,0.034,0.051,0.068,0.076,0.104C44.092,46.191,44.124,46.237,44.155,46.284z"></path><path fill="none" d="M22.283,46.363c0.033,0.029,0.067,0.058,0.099,0.087c0,0,0,0,0,0C22.349,46.42,22.315,46.392,22.283,46.363z"></path><path fill="none" d="M26.948,50.835c-0.003,0.009-0.008,0.017-0.011,0.025c-0.046,0.123-0.094,0.245-0.148,0.364   c-0.005,0.01-0.009,0.02-0.013,0.029c-0.067,0.145-0.139,0.286-0.216,0.426c-0.008,0.016-0.017,0.03-0.025,0.044   c-0.051,0.092-0.108,0.181-0.164,0.271c-0.013,0.021-0.026,0.042-0.038,0.062c0.329-0.51,0.581-1.056,0.748-1.626   c-0.031,0.103-0.061,0.205-0.097,0.306C26.972,50.77,26.96,50.802,26.948,50.835z"></path><path fill="none" d="M23.464,49.335c-0.015-0.01-0.031-0.018-0.046-0.027c-0.017,0.108-0.025,0.218-0.025,0.329   C23.423,49.538,23.446,49.437,23.464,49.335L23.464,49.335z"></path><path fill="none" d="M25.993,52.542c0.112-0.146,0.218-0.297,0.317-0.449c-0.012,0.02-0.025,0.039-0.038,0.059   C26.184,52.284,26.091,52.414,25.993,52.542z"></path><path fill="none" d="M23.498,49.101C23.498,49.1,23.498,49.1,23.498,49.101L23.498,49.101c-0.008,0.078-0.019,0.157-0.034,0.234   c0.015-0.075,0.025-0.151,0.032-0.228C23.497,49.105,23.498,49.103,23.498,49.101z"></path><path fill="none" d="M18.809,55.997c0.114-0.006,0.227-0.013,0.339-0.023c-0.108,0.01-0.218,0.017-0.327,0.023   C18.817,55.997,18.812,55.997,18.809,55.997z"></path><path fill="none" d="M19.341,55.954c-0.02,0.002-0.04,0.005-0.06,0.007c0.12-0.012,0.239-0.024,0.357-0.039   c-0.002,0-0.004,0.001-0.006,0.001C19.536,55.935,19.438,55.944,19.341,55.954z"></path><path fill="none" d="M27.14,50.211c-0.007,0.029-0.013,0.06-0.02,0.089c-0.004,0.016-0.009,0.032-0.014,0.048   c0.054-0.195,0.097-0.393,0.129-0.593c-0.005,0.035-0.01,0.069-0.016,0.104C27.197,49.978,27.169,50.094,27.14,50.211z"></path><path fill="none" d="M19.975,45.182c0.011,0.003,0.021,0.007,0.032,0.01C19.996,45.188,19.985,45.185,19.975,45.182L19.975,45.182z   "></path><path fill="none" d="M27.295,49.277c-0.003,0.042-0.008,0.083-0.012,0.125C27.287,49.36,27.292,49.318,27.295,49.277   C27.295,49.276,27.295,49.276,27.295,49.277L27.295,49.277z"></path><polygon fill="none" points="20.814,45.464 20.818,45.466 20.815,45.464  "></polygon><path fill="none" d="M21.86,46.031c0.036,0.024,0.069,0.051,0.104,0.077C21.93,46.082,21.896,46.055,21.86,46.031   C21.861,46.031,21.861,46.031,21.86,46.031z"></path><polygon fill="none" points="23.264,47.661 23.267,47.668 23.264,47.662  "></polygon><path fill="none" d="M21.463,45.782c0.007,0.004,0.015,0.008,0.023,0.012c-0.001,0-0.001,0-0.002,0   C21.477,45.789,21.469,45.785,21.463,45.782z"></path><path fill="none" d="M19.794,55.899c0.107-0.016,0.213-0.031,0.318-0.049c-0.092,0.015-0.184,0.029-0.276,0.043   C19.823,55.896,19.808,55.897,19.794,55.899z"></path><path fill="none" d="M22.46,46.523C22.459,46.523,22.459,46.523,22.46,46.523c0.074,0.073,0.147,0.147,0.215,0.225l0,0   C22.607,46.671,22.535,46.596,22.46,46.523z"></path><path fill="none" d="M22.688,46.762c0.033,0.038,0.062,0.079,0.094,0.118C22.751,46.84,22.721,46.801,22.688,46.762   C22.688,46.762,22.688,46.762,22.688,46.762z"></path><path d="M40.152,56.071c-0.109-0.067-0.216-0.136-0.321-0.206c-0.002-0.001-0.004-0.003-0.006-0.004   c-0.038-0.023-0.077-0.049-0.114-0.074h0c-0.247-0.166-0.48-0.346-0.703-0.531c-0.001-0.001-0.003-0.002-0.004-0.003   c-0.025-0.021-0.051-0.042-0.077-0.063c-0.235-0.201-0.457-0.412-0.665-0.633c0-0.001-0.001-0.001-0.001-0.002   c-0.013-0.012-0.025-0.026-0.037-0.039c-0.102-0.109-0.199-0.22-0.293-0.333c0,0,0,0-0.001,0c-0.013-0.017-0.025-0.032-0.038-0.049   c0,0,0,0,0-0.001c-0.194-0.235-0.371-0.482-0.531-0.737c0,0,0,0,0-0.001c0,0,0,0-0.001,0s-0.003,0-0.005,0   c-0.096,0.018-0.192,0.033-0.289,0.047c-0.02,0.002-0.04,0.005-0.06,0.009c-0.079,0.01-0.159,0.018-0.24,0.025   c-0.027,0.003-0.055,0.005-0.083,0.008c-0.077,0.006-0.153,0.011-0.231,0.016c-0.027,0.001-0.055,0.003-0.083,0.004   c-0.103,0.004-0.207,0.008-0.311,0.008h-7.921c-0.928,0-1.802-0.172-2.564-0.474c0.001,0,0.001-0.001,0.001-0.001   c-0.001,0-0.002-0.001-0.003-0.002c-0.001,0-0.001,0-0.002,0c-0.153-0.062-0.302-0.128-0.446-0.199l0,0l0,0   c-0.083-0.041-0.164-0.083-0.243-0.127c-0.003-0.002-0.006-0.004-0.009-0.005c0,0,0-0.001,0-0.001   c-0.355-0.197-0.675-0.426-0.95-0.682c0,0-0.001,0-0.002-0.001c-0.008-0.009-0.018-0.017-0.026-0.024   c-0.001,0-0.001-0.002-0.002-0.002c-0.048-0.045-0.095-0.091-0.141-0.138c-0.005-0.006-0.01-0.011-0.015-0.016c0,0,0,0,0,0   c-0.257-0.268-0.468-0.561-0.626-0.87l0-0.001c-0.002-0.005-0.005-0.011-0.008-0.017c-0.032-0.063-0.062-0.127-0.088-0.192   c0-0.001-0.001-0.002-0.001-0.004h0c-0.039-0.094-0.073-0.188-0.102-0.284c-0.009-0.027-0.018-0.055-0.025-0.082   c-0.009-0.034-0.017-0.069-0.026-0.104c-0.006-0.026-0.013-0.053-0.018-0.08c-0.008-0.037-0.014-0.074-0.02-0.11   c-0.004-0.025-0.009-0.05-0.012-0.076c-0.005-0.042-0.009-0.083-0.013-0.125c-0.002-0.021-0.005-0.042-0.006-0.064   c-0.005-0.063-0.007-0.127-0.007-0.191c0-0.069,0.002-0.137,0.008-0.206c0.001-0.009,0.002-0.019,0.003-0.028   c0.005-0.06,0.011-0.119,0.02-0.178c0-0.004,0.001-0.008,0.002-0.012c0.021-0.132,0.049-0.262,0.087-0.39l0,0   c0-0.001,0-0.002,0-0.003c0-0.071-0.005-0.141-0.012-0.21c-0.001-0.02-0.004-0.039-0.006-0.057   c-0.006-0.057-0.015-0.114-0.026-0.169c-0.003-0.013-0.005-0.026-0.008-0.04c-0.005-0.026-0.013-0.052-0.02-0.077   c-0.011-0.042-0.021-0.084-0.033-0.125c-0.004-0.013-0.009-0.028-0.014-0.041c-0.015-0.044-0.032-0.088-0.049-0.133   c-0.004-0.01-0.007-0.021-0.012-0.032c-0.006-0.015-0.013-0.03-0.019-0.046c-0.029-0.066-0.06-0.131-0.094-0.195l0,0   c-0.027-0.052-0.06-0.102-0.09-0.152c-0.007-0.013-0.014-0.025-0.022-0.038c-0.008-0.013-0.017-0.025-0.024-0.037   c-0.036-0.054-0.073-0.106-0.113-0.158c-0.005-0.005-0.009-0.012-0.014-0.018c-0.001-0.002-0.003-0.004-0.005-0.006   c-0.048-0.062-0.101-0.124-0.155-0.184c-0.005-0.007-0.012-0.013-0.017-0.019c-0.034-0.036-0.069-0.072-0.105-0.107   c-0.019-0.018-0.036-0.038-0.054-0.056c-0.005-0.005-0.009-0.009-0.014-0.014c-0.005-0.004-0.011-0.008-0.016-0.013   c-0.118-0.11-0.246-0.216-0.383-0.315c-0.005-0.003-0.01-0.007-0.015-0.01c-0.084-0.061-0.173-0.119-0.264-0.174   c-0.026-0.017-0.053-0.032-0.078-0.046c-0.067-0.04-0.137-0.079-0.208-0.116c-0.032-0.016-0.064-0.033-0.097-0.05   c-0.071-0.035-0.143-0.069-0.217-0.101c-0.031-0.014-0.062-0.028-0.093-0.042c-0.104-0.043-0.211-0.085-0.32-0.124   c-0.84,1.086-1.325,2.359-1.325,3.721c0,0.152,0.008,0.302,0.02,0.451c0.003,0.043,0.008,0.085,0.012,0.128   c0.012,0.113,0.026,0.227,0.044,0.339c0.006,0.038,0.012,0.076,0.019,0.115c0.026,0.146,0.058,0.291,0.096,0.434   c0.005,0.018,0.011,0.035,0.016,0.053c0.035,0.126,0.074,0.251,0.117,0.374c0.014,0.04,0.028,0.078,0.042,0.116   c0.043,0.114,0.088,0.228,0.138,0.339c0.012,0.026,0.022,0.053,0.034,0.078c0.063,0.139,0.131,0.274,0.205,0.408   c0.008,0.015,0.017,0.029,0.025,0.044l0,0c0.002,0.004,0.005,0.008,0.007,0.012c0,0.001,0,0.002,0.001,0.002   c0.065,0.116,0.134,0.229,0.206,0.342c0.004,0.006,0.008,0.011,0.011,0.018c0.007,0.011,0.014,0.021,0.021,0.03   c0.008,0.013,0.017,0.026,0.025,0.039c0.081,0.121,0.166,0.242,0.256,0.359c0.004,0.005,0.007,0.011,0.012,0.017   c0.099,0.128,0.203,0.255,0.312,0.378c0.013,0.015,0.026,0.029,0.039,0.043c0.098,0.108,0.197,0.215,0.301,0.318   c0.018,0.018,0.034,0.035,0.052,0.052c0.238,0.234,0.494,0.455,0.767,0.664c0.012,0.01,0.025,0.019,0.037,0.028   c0.131,0.098,0.264,0.193,0.401,0.286c0.01,0.007,0.02,0.014,0.03,0.021c0.295,0.195,0.607,0.378,0.933,0.545   c0.013,0.007,0.026,0.014,0.041,0.02c0.159,0.083,0.322,0.16,0.488,0.232c1.319,0.579,2.837,0.91,4.452,0.91h7.921   c0.173,0,0.344-0.005,0.515-0.013c0.051-0.002,0.102-0.006,0.153-0.009c0.121-0.008,0.241-0.014,0.36-0.024   c0.055-0.005,0.109-0.012,0.164-0.018c0.118-0.013,0.235-0.025,0.351-0.041c0.049-0.006,0.099-0.013,0.147-0.02   c0.127-0.02,0.253-0.041,0.377-0.062c0.036-0.007,0.072-0.013,0.107-0.021c0.156-0.029,0.311-0.062,0.463-0.1   c0.004,0,0.006-0.001,0.01-0.002c0.501-0.119,0.984-0.271,1.445-0.452C40.151,56.073,40.152,56.073,40.152,56.071L40.152,56.071   C40.153,56.072,40.153,56.072,40.152,56.071L40.152,56.071z"></path><path d="M71.641,57.633c0.144,0.004,0.286,0.004,0.429,0.004c0.045,0,0.091-0.002,0.138-0.002c0.096-0.002,0.192-0.005,0.289-0.01   c0.052-0.002,0.104-0.004,0.158-0.008c0.09-0.005,0.182-0.012,0.273-0.019c0.049-0.003,0.1-0.006,0.15-0.012   c0.122-0.011,0.244-0.025,0.365-0.041c0.056-0.007,0.11-0.015,0.166-0.021c0.085-0.013,0.173-0.025,0.258-0.04   c0.065-0.011,0.129-0.022,0.193-0.033c0.065-0.013,0.13-0.026,0.195-0.039c0.07-0.015,0.141-0.028,0.21-0.043   c0.055-0.013,0.107-0.026,0.162-0.039c0.075-0.019,0.151-0.035,0.226-0.056c0.008-0.003,0.017-0.005,0.024-0.007   c0.194-0.051,0.388-0.107,0.577-0.17c0.024-0.008,0.049-0.015,0.074-0.023c0.088-0.03,0.175-0.061,0.261-0.093   c0.028-0.01,0.055-0.02,0.081-0.029c0.091-0.034,0.179-0.068,0.267-0.103c0.011-0.006,0.022-0.012,0.036-0.016   c0.177-0.073,0.349-0.151,0.521-0.232c-1.273-0.61-2.353-1.455-3.148-2.463c-0.098,0.023-0.197,0.044-0.3,0.061   c-0.003,0.001-0.006,0.002-0.01,0.002c-0.154,0.028-0.312,0.052-0.473,0.068c-0.008,0.001-0.016,0.001-0.022,0.003   c-0.156,0.016-0.316,0.028-0.479,0.035c-0.008,0-0.017,0-0.025,0c-0.162,0.006-0.328,0.008-0.496,0.003l-7.917-0.239   c-0.698-0.021-1.361-0.141-1.968-0.335c-0.787,1.098-1.711,1.876-2.93,2.42c1.383,0.73,3.023,1.183,4.797,1.236L71.641,57.633z"></path><path d="M58.61,50.485c-0.021-0.146-0.029-0.295-0.024-0.445c0.063-2.133,2.52-3.796,5.471-3.708l7.918,0.24   c2.951,0.089,5.302,1.897,5.237,4.031c-0.001,0.026-0.004,0.054-0.006,0.081c0.364,1.149,1.623,2.043,3.24,2.345   c0.159-0.334,0.285-0.682,0.379-1.038c0.01-0.038,0.021-0.075,0.029-0.112c0.014-0.059,0.026-0.118,0.039-0.177   c0.012-0.055,0.021-0.109,0.031-0.164c0.01-0.051,0.018-0.102,0.025-0.152c0.011-0.069,0.019-0.139,0.026-0.209   c0.005-0.039,0.01-0.08,0.014-0.12c0.01-0.112,0.018-0.225,0.021-0.34c0.121-3.963-3.888-7.313-8.935-7.466l-7.919-0.239   c-5.047-0.153-9.252,2.95-9.371,6.914c-0.004,0.125-0.003,0.249,0.001,0.372c0.002,0.066,0.008,0.13,0.013,0.197   c0.004,0.056,0.006,0.112,0.011,0.168c0.009,0.091,0.022,0.18,0.037,0.269c0.004,0.031,0.007,0.063,0.012,0.093   c0.017,0.106,0.038,0.211,0.062,0.316c0.004,0.013,0.006,0.025,0.008,0.038c0.026,0.115,0.057,0.229,0.09,0.343   c0,0.002,0,0.004,0.002,0.007c0.102,0.344,0.234,0.68,0.397,1.005c0,0.003,0.002,0.005,0.004,0.008   C56.005,52.532,58.151,51.698,58.61,50.485z"></path><path d="M89.414,42.322l-7.912,0.371c-0.189,0.008-0.376,0.023-0.561,0.041c-0.05,0.005-0.099,0.01-0.147,0.016   c-0.146,0.017-0.293,0.034-0.438,0.056c-0.039,0.005-0.078,0.011-0.117,0.017c-1.174,0.186-2.269,0.545-3.238,1.041   c1.218,0.619,2.256,1.443,3.039,2.409l0,0c0.374-0.105,0.768-0.181,1.176-0.225c0.017-0.002,0.032-0.003,0.048-0.005   c0.13-0.012,0.261-0.023,0.394-0.03l7.913-0.371c2.949-0.138,5.431,1.484,5.53,3.616c0.101,2.132-2.218,3.98-5.168,4.118   l-7.913,0.371c-2.95,0.138-5.433-1.483-5.531-3.616c-0.005-0.098-0.003-0.196,0.003-0.292c-0.352-1.14-1.562-2.082-3.152-2.468   c-0.342,0.678-0.561,1.402-0.63,2.153c-0.001,0.007-0.002,0.014-0.003,0.021c-0.009,0.109-0.016,0.218-0.019,0.328   c-0.001,0.019-0.003,0.037-0.003,0.056c-0.002,0.126-0.001,0.253,0.005,0.381c0.188,3.962,4.442,6.994,9.485,6.757l7.913-0.371   c5.045-0.236,8.997-3.652,8.812-7.615C98.714,45.117,94.459,42.085,89.414,42.322z"></path><path d="M27.216,42.482c-0.114,0.009-0.226,0.021-0.338,0.034c-0.037,0.003-0.074,0.006-0.111,0.011   c-0.132,0.015-0.262,0.034-0.393,0.054c-0.016,0.002-0.032,0.004-0.047,0.007c-0.144,0.022-0.285,0.048-0.425,0.076   c-0.002,0-0.005,0-0.008,0.001c-0.43,0.086-0.848,0.195-1.251,0.327c0.406,0.29,0.782,0.604,1.124,0.943   c0.009,0.009,0.018,0.019,0.027,0.028c0.1,0.099,0.197,0.201,0.29,0.305c0.017,0.019,0.032,0.037,0.049,0.056   c0.086,0.098,0.171,0.197,0.252,0.299c0.016,0.019,0.032,0.039,0.048,0.059c0.085,0.108,0.167,0.218,0.246,0.331   c0.008,0.011,0.015,0.021,0.023,0.032c0.177,0.255,0.337,0.518,0.479,0.788c0.153-0.019,0.308-0.035,0.464-0.046   c0.007,0,0.014,0,0.021-0.001c0.156-0.009,0.312-0.015,0.471-0.015h7.921c0.179,0,0.358,0.007,0.533,0.019c0,0,0.001,0,0.002,0   s0,0,0.001,0c0.001,0,0.001,0,0.002,0c0.047,0.003,0.094,0.008,0.142,0.013c0,0,0.001,0,0.002,0c0.001,0,0.002,0,0.003,0   c0.036,0.003,0.072,0.007,0.108,0.01c0.001,0,0.002,0,0.002,0c0.001,0,0.001,0,0.002,0c0.043,0.004,0.085,0.009,0.128,0.015   c0.003,0,0.007,0.001,0.01,0.001c0.003,0.001,0.006,0.001,0.008,0.001c0.148,0.02,0.294,0.043,0.438,0.071   c0.016,0.003,0.031,0.006,0.046,0.009c0.002,0,0.004,0.001,0.006,0.001c0.002,0,0.004,0.001,0.006,0.001   c0.119,0.024,0.235,0.051,0.351,0.081c0,0,0,0,0.001,0c0,0,0,0,0.001,0c0.04,0.01,0.079,0.021,0.118,0.032   c0.002,0.001,0.004,0.001,0.005,0.001c0.002,0,0.003,0.001,0.005,0.001c0.203,0.056,0.4,0.122,0.59,0.195c0,0,0.001,0,0.001,0.001   c0.004,0.001,0.009,0.003,0.014,0.005c0,0,0,0,0.001,0c0.156,0.062,0.308,0.127,0.455,0.199c0.001,0,0.002,0.001,0.004,0.001   c0,0,0,0.001,0.001,0.001s0.001,0,0.002,0.001c0.979,0.478,1.729,1.184,2.103,2.011l0,0l0,0c0,0.001,0,0.001,0,0.001   c0.011,0.023,0.021,0.046,0.03,0.069c0.016,0.036,0.029,0.072,0.043,0.108l0,0l0,0c0.01,0.027,0.02,0.053,0.029,0.08   c0,0,0,0,0,0.001v0c0.042,0.12,0.076,0.242,0.101,0.366c0,0,0,0,0,0.001l0,0l0,0c0.008,0.037,0.014,0.074,0.02,0.111   c0,0,0,0,0,0.001v0c0.001,0.005,0.001,0.01,0.002,0.014c0.023,0.146,0.037,0.294,0.037,0.444c0,0.036-0.002,0.071-0.004,0.107   c0,0,0,0,0,0.001c-0.004,0.112-0.015,0.223-0.032,0.332v0c0.018,0.231,0.072,0.454,0.156,0.668   c0.005,0.016,0.012,0.028,0.018,0.044c0.086,0.206,0.201,0.402,0.342,0.588c0.005,0.007,0.01,0.015,0.016,0.021   c0.044,0.056,0.091,0.11,0.138,0.164c0.016,0.018,0.032,0.034,0.047,0.052c0.05,0.053,0.1,0.104,0.154,0.155   c0,0,0,0.001,0.001,0.001c0.112,0.106,0.235,0.206,0.366,0.301c0.021,0.016,0.041,0.031,0.062,0.045   c0.058,0.041,0.119,0.081,0.18,0.119c0.028,0.019,0.057,0.036,0.087,0.054c0.062,0.037,0.126,0.075,0.191,0.109   c0.009,0.005,0.018,0.009,0.026,0.013c0.14,0.073,0.287,0.141,0.438,0.203c0.033,0.014,0.066,0.027,0.1,0.041   c0.07,0.026,0.142,0.052,0.215,0.077c0.038,0.012,0.076,0.023,0.115,0.036c0.075,0.024,0.15,0.048,0.227,0.068   c0.441-0.695,0.743-1.453,0.877-2.253c0-0.004,0.001-0.007,0.001-0.011c0.021-0.13,0.039-0.26,0.051-0.392   c0-0.004,0.001-0.007,0.001-0.012c0.012-0.134,0.021-0.269,0.024-0.405c0.001-0.042,0.004-0.085,0.004-0.128   c0-0.117-0.004-0.232-0.011-0.348c-0.001-0.038-0.006-0.075-0.009-0.112c-0.002-0.034-0.006-0.067-0.01-0.1   c-0.004-0.044-0.007-0.088-0.013-0.131c-0.006-0.045-0.012-0.089-0.019-0.133c-0.01-0.069-0.021-0.138-0.034-0.206   c-0.006-0.036-0.014-0.07-0.021-0.105c-0.002-0.011-0.004-0.021-0.006-0.032c-0.003-0.012-0.006-0.024-0.009-0.037   c-0.012-0.054-0.023-0.108-0.037-0.162c-0.006-0.025-0.012-0.05-0.019-0.074c-0.005-0.021-0.011-0.042-0.016-0.062   c-0.019-0.068-0.039-0.135-0.06-0.202c-0.01-0.028-0.018-0.058-0.027-0.086c-0.004-0.013-0.008-0.027-0.012-0.04   c-0.025-0.073-0.052-0.146-0.08-0.218c-0.011-0.029-0.02-0.057-0.031-0.084c-0.003-0.007-0.005-0.013-0.006-0.019   c-0.042-0.104-0.086-0.206-0.133-0.307c-0.016-0.035-0.034-0.069-0.051-0.103c-0.021-0.043-0.043-0.086-0.064-0.129   c-0.013-0.024-0.024-0.049-0.038-0.074c-0.022-0.043-0.047-0.086-0.071-0.129c-0.033-0.057-0.064-0.114-0.098-0.17   c-0.028-0.046-0.056-0.091-0.085-0.137c-0.033-0.051-0.067-0.104-0.101-0.154c-0.031-0.047-0.063-0.093-0.096-0.139   c-0.025-0.035-0.051-0.069-0.076-0.104c-0.011-0.014-0.02-0.028-0.031-0.042c-0.005-0.007-0.011-0.015-0.017-0.022   c-0.029-0.039-0.058-0.078-0.088-0.116c-0.037-0.045-0.074-0.091-0.112-0.137c-0.038-0.045-0.076-0.092-0.115-0.137   c-0.013-0.014-0.025-0.028-0.038-0.042c-0.024-0.025-0.048-0.052-0.071-0.078c-0.002-0.002-0.004-0.005-0.006-0.007   c-0.065-0.072-0.135-0.142-0.204-0.212c-0.022-0.021-0.043-0.045-0.065-0.068c-0.005-0.004-0.009-0.009-0.013-0.014   c-0.026-0.026-0.052-0.052-0.078-0.078c-0.052-0.05-0.106-0.099-0.16-0.147c-0.02-0.019-0.041-0.037-0.061-0.056   c-0.015-0.012-0.029-0.026-0.044-0.039c-0.055-0.049-0.114-0.098-0.171-0.146c-0.022-0.02-0.046-0.038-0.069-0.058   c-0.013-0.01-0.025-0.021-0.037-0.03c-0.022-0.018-0.044-0.035-0.066-0.052c0,0,0,0-0.001,0c-0.037-0.029-0.073-0.058-0.11-0.086   c-0.018-0.013-0.034-0.026-0.052-0.038c-0.019-0.015-0.039-0.029-0.058-0.043c-0.063-0.047-0.127-0.093-0.192-0.138   c-0.012-0.008-0.025-0.017-0.038-0.026c-0.021-0.015-0.044-0.031-0.067-0.045c-0.042-0.029-0.085-0.057-0.128-0.085   c-0.027-0.018-0.053-0.035-0.079-0.052c-0.015-0.008-0.029-0.018-0.043-0.026c-0.014-0.008-0.026-0.017-0.041-0.024   c-0.024-0.016-0.051-0.029-0.076-0.044c-0.112-0.068-0.224-0.135-0.339-0.199c0,0,0,0-0.001,0c-0.001,0-0.002,0.001-0.003,0.002   c-0.235-0.129-0.474-0.253-0.723-0.365c-0.003-0.001-0.006-0.003-0.01-0.004c-0.016-0.008-0.032-0.015-0.048-0.022   c-0.006-0.003-0.012-0.006-0.018-0.009c-0.021-0.008-0.041-0.017-0.062-0.025c-0.07-0.03-0.14-0.06-0.211-0.088   c-0.028-0.012-0.057-0.023-0.085-0.035c-0.089-0.036-0.179-0.069-0.269-0.102c-0.001,0-0.001-0.001-0.002-0.001l0,0   c0,0-0.001,0-0.001,0c-0.03-0.011-0.061-0.021-0.091-0.032c-0.091-0.032-0.182-0.063-0.274-0.092   c-0.003-0.001-0.006-0.002-0.008-0.003c-0.004-0.001-0.008-0.003-0.013-0.004c-0.021-0.007-0.043-0.014-0.064-0.02   c-0.103-0.033-0.205-0.063-0.308-0.093c-0.002,0-0.004-0.001-0.007-0.001c-0.001,0-0.002,0-0.003-0.001   c-0.002,0-0.004-0.001-0.006-0.001c-0.16-0.044-0.323-0.084-0.488-0.122c-0.04-0.009-0.079-0.019-0.12-0.027   c-0.167-0.037-0.335-0.07-0.506-0.099c-0.305-0.052-0.616-0.092-0.932-0.119c-0.008-0.001-0.015-0.002-0.023-0.002   c-0.141-0.012-0.283-0.02-0.425-0.027c-0.022-0.001-0.043-0.003-0.065-0.004c-0.163-0.007-0.325-0.01-0.488-0.01h-7.921   c-0.156,0-0.311,0.003-0.465,0.009c-0.083,0.003-0.164,0.009-0.246,0.015C27.356,42.474,27.285,42.477,27.216,42.482z"></path><path d="M21.55,55.503c0.034-0.01,0.067-0.02,0.101-0.031c0.002-0.001,0.004-0.001,0.005-0.002c0,0,0,0,0-0.001   c-0.41-0.291-0.789-0.608-1.134-0.949c-0.026-0.027-0.051-0.054-0.077-0.082c-0.087-0.089-0.173-0.177-0.255-0.268   c-0.022-0.024-0.042-0.05-0.064-0.075c-0.188-0.215-0.366-0.437-0.527-0.667c-0.179-0.257-0.341-0.523-0.484-0.797   c-0.001,0-0.001,0-0.002,0c-0.003,0-0.006,0.001-0.009,0.001c-0.002,0.001-0.004,0.001-0.005,0.001   c-0.084,0.011-0.169,0.02-0.255,0.028c-0.022,0.002-0.044,0.004-0.066,0.006c-0.026,0.002-0.053,0.003-0.08,0.005h0   c-0.037,0.003-0.073,0.006-0.109,0.008c-0.017,0.001-0.033,0.002-0.049,0.003c-0.024,0.001-0.049,0.003-0.073,0.005   c-0.102,0.004-0.205,0.006-0.308,0.006h-7.921c-2.953,0-5.356-1.735-5.356-3.87s2.403-3.871,5.356-3.871h7.921   c0.167,0,0.331,0.006,0.493,0.017h0.001c0.001,0,0.001,0,0.002,0c0.05,0.004,0.1,0.01,0.15,0.015   c0.216,0.019,0.428,0.045,0.635,0.083c0.006,0.001,0.012,0.002,0.017,0.003c0.176,0.032,0.35,0.068,0.519,0.112l0,0   c0.011,0.003,0.021,0.006,0.032,0.01c0.135,0.036,0.267,0.075,0.396,0.119c0.001,0,0.001,0,0.002,0c0,0,0,0,0.001,0   c0.044,0.015,0.087,0.033,0.131,0.049c0.093,0.034,0.187,0.067,0.277,0.105h0c0.001,0,0.002,0.001,0.003,0.001   c0.226,0.095,0.44,0.2,0.645,0.316c0.006,0.003,0.014,0.007,0.021,0.011c0,0,0.001,0,0.002,0c0.129,0.075,0.255,0.154,0.375,0.237   c0.001,0,0.001,0,0.001,0c0.035,0.024,0.068,0.051,0.103,0.077c0.111,0.081,0.218,0.167,0.319,0.255   c0.033,0.029,0.066,0.057,0.099,0.086c0,0,0,0,0,0c0.026,0.024,0.053,0.048,0.078,0.073c0,0,0,0,0,0   c0.075,0.073,0.147,0.147,0.215,0.225l0,0c0.004,0.004,0.009,0.009,0.013,0.013c0,0,0,0,0,0c0.033,0.039,0.063,0.078,0.094,0.118   c0.198,0.246,0.361,0.505,0.482,0.781c0,0,0,0,0,0c0.001,0.002,0.001,0.004,0.002,0.007c0.04,0.092,0.077,0.186,0.108,0.282   c0.006,0.015,0.012,0.03,0.015,0.047c0.01,0.034,0.019,0.068,0.027,0.102c0.007,0.029,0.016,0.058,0.022,0.086c0,0,0,0,0,0   c0.017,0.073,0.032,0.146,0.043,0.22c0,0,0,0,0,0.001c0.009,0.06,0.015,0.12,0.021,0.18c0,0.003,0,0.005,0,0.008   c0,0.001,0,0.002,0,0.003c0,0.006,0.001,0.012,0.002,0.017c0,0,0,0,0,0.001c0.005,0.069,0.008,0.138,0.008,0.208   c0,0.093-0.006,0.185-0.015,0.276l0,0c0,0,0,0,0,0.001c0,0.002-0.001,0.004-0.001,0.007c-0.007,0.076-0.018,0.152-0.032,0.228h0   c-0.018,0.102-0.041,0.203-0.071,0.302l0,0c0,0.001,0,0.002,0,0.002c0,1.267,1.06,2.363,2.6,2.902   c0.098-0.128,0.19-0.258,0.279-0.391c0.013-0.02,0.026-0.039,0.038-0.059c0.008-0.012,0.014-0.024,0.022-0.036   c0.012-0.021,0.025-0.042,0.038-0.062c0.056-0.09,0.113-0.179,0.164-0.271c0.008-0.014,0.017-0.028,0.025-0.044   c0.078-0.14,0.149-0.281,0.216-0.426c0.004-0.01,0.008-0.02,0.013-0.029c0.054-0.119,0.103-0.241,0.148-0.364   c0.003-0.009,0.008-0.017,0.011-0.025c0.012-0.033,0.024-0.065,0.036-0.099c0.036-0.101,0.066-0.203,0.097-0.306   c0.007-0.028,0.018-0.055,0.026-0.083c0.004-0.016,0.01-0.032,0.014-0.048c0.007-0.029,0.013-0.06,0.02-0.089   c0.029-0.117,0.057-0.233,0.079-0.352c0.006-0.035,0.011-0.069,0.016-0.104c0.02-0.117,0.036-0.235,0.048-0.353   c0.004-0.042,0.009-0.083,0.012-0.125l0,0c0,0,0,0,0,0c0.012-0.15,0.021-0.301,0.021-0.453c0-3.967-4.108-7.194-9.158-7.194h-7.921   c-5.049,0-9.158,3.227-9.158,7.194c0,3.967,4.109,7.193,9.158,7.193h7.921c0.166,0,0.331-0.004,0.494-0.011   c0.053-0.002,0.105-0.005,0.157-0.009c0.004,0,0.008,0,0.012,0c0.109-0.007,0.219-0.014,0.327-0.023   c0.044-0.004,0.089-0.009,0.133-0.013c0.02-0.002,0.04-0.005,0.06-0.007c0.097-0.01,0.195-0.02,0.291-0.031   c0.002,0,0.004-0.001,0.006-0.001c0.052-0.007,0.104-0.015,0.156-0.022c0.014-0.002,0.028-0.004,0.042-0.006   c0.093-0.014,0.185-0.028,0.276-0.043c0.017-0.003,0.033-0.006,0.05-0.009c0.01-0.002,0.021-0.004,0.03-0.006   c0.041-0.009,0.082-0.016,0.123-0.023c0.088-0.016,0.175-0.033,0.262-0.053c0.03-0.007,0.06-0.014,0.089-0.02   c0.039-0.009,0.078-0.018,0.116-0.026c0.094-0.022,0.185-0.046,0.277-0.07c0.008-0.002,0.017-0.004,0.025-0.006   c0.005-0.001,0.01-0.002,0.015-0.003c0.047-0.013,0.094-0.025,0.14-0.038C21.345,55.567,21.448,55.535,21.55,55.503z"></path><path d="M43.184,44.307c0.008,0.007,0.016,0.014,0.023,0.021c0.115,0.098,0.228,0.2,0.336,0.303   c0.005,0.005,0.01,0.009,0.015,0.014c0.221,0.211,0.429,0.433,0.621,0.663c0.006,0.007,0.012,0.014,0.019,0.021   c0.008,0.01,0.015,0.019,0.022,0.028c0.004,0.005,0.009,0.01,0.013,0.016c0.078,0.095,0.153,0.192,0.227,0.29   c0.003,0.004,0.006,0.008,0.01,0.013c0.012,0.015,0.024,0.032,0.036,0.048c0.087,0.119,0.17,0.239,0.249,0.361l0,0   c0.383-0.08,0.783-0.131,1.196-0.149l7.914-0.325c0.682-0.028,1.338,0.039,1.945,0.183c0.001,0,0.001-0.001,0.001-0.002   c0.102-0.12,0.208-0.239,0.317-0.354c0.004-0.004,0.008-0.008,0.013-0.013c0.442-0.463,0.949-0.886,1.509-1.258   c0.024-0.015,0.049-0.031,0.072-0.046c0.113-0.073,0.227-0.144,0.342-0.212c0.033-0.02,0.067-0.039,0.101-0.059   c0.113-0.065,0.229-0.129,0.347-0.191c0.032-0.016,0.062-0.033,0.094-0.049c0.147-0.076,0.297-0.148,0.449-0.217   c-1.525-0.768-3.364-1.182-5.326-1.102l-7.914,0.325c-1.375,0.057-2.667,0.353-3.821,0.83c0,0,0,0-0.001,0   C42.418,43.706,42.817,43.994,43.184,44.307z"></path><path d="M61.07,47.564c-0.005,0.002-0.01,0.004-0.014,0.007c-0.155,0.08-0.304,0.166-0.443,0.258   c-0.007,0.005-0.016,0.011-0.023,0.016c-0.061,0.041-0.12,0.082-0.176,0.125c-0.009,0.007-0.02,0.014-0.028,0.021   c-0.127,0.096-0.243,0.196-0.352,0.302c-0.01,0.011-0.021,0.021-0.03,0.032c-0.044,0.042-0.084,0.087-0.124,0.131   c-0.011,0.012-0.021,0.024-0.032,0.037c-0.097,0.109-0.181,0.223-0.257,0.34c-0.008,0.015-0.017,0.03-0.026,0.044   c-0.028,0.045-0.054,0.092-0.079,0.138c-0.009,0.016-0.019,0.032-0.027,0.048c-0.029,0.059-0.058,0.12-0.084,0.182v0.001   c0,0.004,0,0.007,0,0.011c0.025,0.601-0.143,1.179-0.461,1.701c-0.359,0.587-0.911,1.103-1.596,1.505   c-0.868,0.509-1.95,0.833-3.136,0.881l-7.914,0.327c-0.232,0.008-0.461,0.007-0.687-0.007l0,0   c-0.112-0.006-0.222-0.015-0.332-0.025c-0.018-0.002-0.036-0.004-0.053-0.006c-0.001,0-0.002,0-0.004,0   c-0.074-0.008-0.148-0.017-0.221-0.026c-0.001,0-0.003,0-0.004,0c-0.01-0.002-0.021-0.003-0.03-0.004   c-0.111-0.018-0.222-0.035-0.331-0.056c0-0.001-0.001-0.001-0.002-0.001c-0.008-0.001-0.016-0.003-0.024-0.005   c-0.087-0.016-0.174-0.036-0.26-0.057c0,0-0.001-0.001-0.001-0.001c-0.007-0.001-0.013-0.003-0.02-0.004   c-0.106-0.024-0.21-0.054-0.312-0.083c-0.006-0.002-0.012-0.004-0.019-0.006c-0.001,0-0.002,0-0.002,0   c-0.101-0.03-0.2-0.062-0.298-0.098c-0.005-0.002-0.011-0.004-0.017-0.006c-0.002,0-0.003-0.001-0.004-0.001   c-0.082-0.03-0.164-0.062-0.245-0.094c-0.01-0.004-0.021-0.009-0.031-0.013c0,0-0.001,0-0.001,0   c-0.09-0.037-0.178-0.076-0.265-0.116l0,0c-0.057-0.027-0.114-0.056-0.17-0.085c0,0-0.001,0-0.001-0.001   c-0.01-0.004-0.019-0.01-0.028-0.014l0,0c-0.013-0.007-0.024-0.012-0.036-0.019c-0.002-0.002-0.004-0.004-0.006-0.005   c-0.051-0.026-0.1-0.054-0.149-0.082c0-0.001-0.001-0.001-0.002-0.001c-0.045-0.027-0.09-0.053-0.135-0.081   c0,0-0.001,0-0.001-0.001c-0.016-0.009-0.03-0.019-0.045-0.027c-0.001-0.001-0.002-0.001-0.002-0.002   c-0.001-0.001-0.002-0.001-0.003-0.001c-0.045-0.029-0.089-0.058-0.134-0.087c0-0.001,0-0.001-0.001-0.001   s-0.001-0.001-0.002-0.001c-0.014-0.011-0.027-0.02-0.041-0.029l0,0c-0.043-0.029-0.085-0.061-0.127-0.091l0,0   c0,0-0.001-0.001-0.001-0.001c-0.082-0.062-0.161-0.125-0.236-0.189c-0.001-0.001-0.001-0.001-0.001-0.002   c-0.026-0.022-0.053-0.044-0.08-0.067c-0.003-0.004-0.007-0.008-0.01-0.011h0c-0.06-0.054-0.116-0.109-0.172-0.165   c0-0.001,0-0.001,0-0.001c-0.002-0.002-0.003-0.003-0.005-0.005c-0.058-0.059-0.112-0.119-0.166-0.18c0,0,0-0.001-0.001-0.001   c0,0,0,0,0,0c0-0.002-0.001-0.002-0.002-0.003c0,0,0,0,0,0c-0.07-0.081-0.136-0.165-0.197-0.25c0,0,0,0,0-0.001   c-0.011-0.015-0.022-0.029-0.032-0.045c0,0-0.001-0.001-0.001-0.002c-0.018-0.025-0.036-0.051-0.053-0.077c0-0.001,0-0.001,0-0.001   s0,0,0-0.001c-0.017-0.025-0.034-0.053-0.05-0.079c0-0.001-0.001-0.001-0.001-0.002c-0.018-0.028-0.034-0.056-0.05-0.084l0,0   c-0.016-0.026-0.029-0.053-0.044-0.079c0,0,0,0,0-0.001c-0.016-0.029-0.032-0.059-0.046-0.089c0,0-0.001,0-0.001-0.001   c-0.005-0.012-0.011-0.024-0.017-0.036c-0.022-0.047-0.044-0.094-0.063-0.142c0-0.001,0-0.002-0.001-0.002   c-0.01-0.024-0.021-0.049-0.03-0.073l0,0c0-0.001,0-0.001,0-0.001c-0.013-0.031-0.024-0.064-0.035-0.097   c-0.001,0-0.001-0.002-0.001-0.002c-0.004-0.012-0.008-0.023-0.012-0.035c-0.016-0.048-0.031-0.097-0.044-0.145l0,0   c0-0.002,0-0.003-0.001-0.004c-0.007-0.025-0.015-0.051-0.021-0.077l0,0c-0.028-0.11-0.048-0.224-0.062-0.338c0,0,0,0,0,0   c-0.002-0.012-0.003-0.023-0.005-0.035l0,0c-0.006-0.063-0.011-0.127-0.015-0.191c-0.013-0.333-0.031-0.572,0.004-0.803   c-0.217-1.15-1.31-2.112-2.801-2.562c0,0,0,0.001-0.001,0.001c-0.165,0.256-0.312,0.521-0.438,0.792   c-0.002,0.003-0.004,0.007-0.006,0.012c0,0-0.001,0.001-0.001,0.002c-0.006,0.012-0.011,0.024-0.016,0.036   c-0.057,0.124-0.108,0.247-0.156,0.373c-0.007,0.018-0.014,0.036-0.021,0.054c-0.051,0.136-0.097,0.274-0.137,0.413   c-0.001,0.004-0.002,0.009-0.003,0.013c-0.015,0.051-0.026,0.103-0.038,0.154c-0.023,0.088-0.047,0.175-0.066,0.263   c0,0.001,0,0.003-0.001,0.004c-0.004,0.025-0.008,0.05-0.014,0.076c-0.022,0.111-0.041,0.224-0.056,0.337   c-0.006,0.042-0.01,0.085-0.016,0.128c-0.011,0.102-0.02,0.205-0.025,0.308c-0.002,0.042-0.005,0.084-0.007,0.127   c0,0,0,0.001,0,0.001c-0.004,0.142-0.005,0.283,0,0.427c0.006,0.152,0.021,0.301,0.039,0.45c0.005,0.043,0.011,0.084,0.017,0.128   c0.016,0.113,0.036,0.225,0.059,0.336c0.008,0.039,0.015,0.077,0.023,0.115c0.033,0.145,0.07,0.288,0.114,0.429   c0.006,0.018,0.012,0.034,0.017,0.05c0.004,0.012,0.008,0.023,0.012,0.035c0.01,0.029,0.021,0.058,0.031,0.087   c0.029,0.084,0.057,0.167,0.09,0.25c0.015,0.037,0.03,0.076,0.046,0.113c0.047,0.112,0.098,0.223,0.151,0.333   c0.013,0.025,0.024,0.053,0.038,0.077c0.021,0.043,0.046,0.084,0.069,0.125c0.045,0.085,0.09,0.169,0.139,0.251   c0.005,0.008,0.009,0.016,0.013,0.023c0.012,0.02,0.024,0.04,0.037,0.058c0.044,0.071,0.092,0.141,0.139,0.211   c0.027,0.04,0.052,0.081,0.079,0.12c0.021,0.028,0.04,0.057,0.061,0.086c0.008,0.01,0.017,0.021,0.024,0.031   c0.08,0.107,0.16,0.215,0.247,0.318c0.004,0.005,0.007,0.011,0.011,0.015c0.104,0.124,0.214,0.245,0.327,0.366   c0.013,0.013,0.027,0.026,0.041,0.04c0.101,0.105,0.207,0.207,0.315,0.306c0.017,0.018,0.035,0.033,0.052,0.049   c0.236,0.213,0.49,0.415,0.756,0.604c0.009,0.007,0.018,0.013,0.026,0.019c0.006,0.004,0.01,0.008,0.016,0.012   c0.01,0.007,0.021,0.015,0.031,0.021c0.072,0.05,0.147,0.097,0.221,0.145c0.067,0.043,0.131,0.087,0.199,0.129   c0.009,0.006,0.017,0.011,0.026,0.017c0.003,0.002,0.007,0.004,0.011,0.006c0,0,0.001,0,0.001,0.001   c0.134,0.082,0.273,0.159,0.415,0.236c0.174,0.092,0.352,0.183,0.534,0.267c0.009,0.004,0.018,0.008,0.028,0.013   c0.013,0.006,0.026,0.012,0.04,0.018c0.028,0.012,0.057,0.022,0.086,0.035c1.43,0.629,3.098,0.962,4.867,0.89l7.915-0.325   c5.046-0.207,9.018-3.6,8.855-7.563c-0.029-0.723-0.196-1.416-0.478-2.063c-0.498,0.085-0.965,0.226-1.384,0.412   c-0.004,0.001-0.007,0.003-0.011,0.004C61.223,47.489,61.146,47.526,61.07,47.564z"></path></g></svg></svg> <defs><filter id="colors5584503660"><feColorMatrix type="matrix" values="0 0 0 0 0  0 0 0 0 0.76953125  0 0 0 0 0.98046875  0 0 0 1 0" class="icon-fecolormatrix"></feColorMatrix></filter> <filter id="colorsf509741510"><feColorMatrix type="matrix" values="0 0 0 0 0.99609375  0 0 0 0 0.99609375  0 0 0 0 0.99609375  0 0 0 1 0" class="icon-fecolormatrix"></feColorMatrix></filter> <filter id="colorsb5722022138"><feColorMatrix type="matrix" values="0 0 0 0 0  0 0 0 0 0  0 0 0 0 0  0 0 0 1 0" class="icon-fecolormatrix"></feColorMatrix></filter></defs></g></g> <g transform="translate(12.019996643066406,0)"><g data-gra="path-name" fill-rule="" class="tp-name iconsvg-namesvg" transform="translate(0,0)"><g transform="scale(1)"><g><path d="M9.88-46.67L9.88-46.67 10.26-47.05Q19.12-46.62 21.86-42.38L21.86-42.38Q23.53-39.8 22.18-37.38L22.18-37.38Q20.95-35.18 18.42-35.45L18.42-35.45Q17.19-35.56 15.95-36.36L15.95-36.36Q15.74-37.71 15.09-39.26L15.09-39.26Q14.82-37.76 12.68-37.44L12.68-37.44 12.68 2.74Q12.68 3.33 10.58 4.22 8.49 5.1 6.39 5.1L6.39 5.1 5 5.1 5-40.28 15.09-39.32Q13.11-43.77 9.88-46.67ZM23.9-27.39L23.9-13.96 30.24-13.96 30.24-27.39 23.9-27.39ZM37.49-26.32L37.49-26.32 37.49-9.99Q37.44-9.78 36.47-9.4 35.5-9.02 34.05-8.67 32.6-8.33 31.53-8.33L31.53-8.33 30.24-8.33 30.24-12.41 23.9-12.41 23.9-9.13Q23.9-8.81 23.02-8.27 22.13-7.73 20.63-7.3 19.12-6.88 17.72-6.88L17.72-6.88 16.65-6.88 16.65-31.85 24.17-28.95 29.7-28.95 32.87-32.39 39.48-27.45Q38.89-26.64 37.49-26.32ZM41.25-41.04L44.63-44.9 51.62-39.42Q51.03-38.62 49.47-38.3L49.47-38.3 49.47-3.38Q49.47-1.34 49.15-0.03 48.82 1.29 47.83 2.44 46.84 3.6 44.88 4.24 42.92 4.89 39.75 5.16L39.75 5.16Q39.48 1.13 38.3-0.21L38.3-0.21Q36.79-2.09 32.98-2.74L32.98-2.74 32.98-3.49Q39.32-3.06 40.61-3.06L40.61-3.06Q41.79-3.06 41.79-4.3L41.79-4.3 41.79-39.48 24.17-39.48 23.63-41.04 41.25-41.04ZM74.34-44.1L74.34-44.1 74.93-44.37Q81.8-41.52 83.31-36.95L83.31-36.95Q84.27-33.95 82.55-32.01L82.55-32.01Q80.94-30.19 78.69-31.31L78.69-31.31Q77.99-31.64 77.34-32.28L77.34-32.28Q77.56-38.03 74.34-44.1ZM90.13-23.96L92.38-23.96 92.38-33.14Q91.95-31.15 90.13-23.96L90.13-23.96ZM82.93-22.56L82.61-22.5 82.61-5.64Q86.85-2.85 97.43-2.85L97.43-2.85Q104.52-2.85 109.36-3.17L109.36-3.17 109.36-2.58Q107.69-2.26 106.7-0.38 105.7 1.5 105.54 4.03L105.54 4.03 95.66 4.03Q91.63 4.03 88.81 3.03 85.99 2.04 84.22 0.32 82.45-1.4 80.62-4.35L80.62-4.35Q79.65-6.02 78.85-4.24L78.85-4.24Q77.24-0.21 76 3.49L76 3.49Q76.16 4.19 75.52 4.57L75.52 4.57 70.52-2.79Q69.39-1.18 67.19 1.61L67.19 1.61Q66.87 3.17 66.01 4.14L66.01 4.14 59.35-2.09Q61.02-3.54 61.47-4.14 61.93-4.73 61.93-5.64L61.93-5.64 61.93-17.78 56.5-17.78 56.02-19.28 61.93-19.28 61.93-27.82 59.19-27.82 59.03-28.31Q57.74-26.53 56.61-25.35L56.61-25.35 56.02-25.62Q57.31-29.49 58.38-35.99 59.46-42.49 59.67-46.84L59.67-46.84 69.23-44.63Q68.96-43.51 67.19-43.29L67.19-43.29Q66.76-41.95 65.26-38.62L65.26-38.62 66.76-38.62 70.04-42.59Q73.53-40.01 75.84-37.97L75.84-37.97Q75.57-37.06 74.34-37.06L74.34-37.06 64.51-37.06Q62.14-32.6 59.78-29.38L59.78-29.38 67.08-29.38 70.04-33.78Q73.37-30.78 75.25-28.74L75.25-28.74Q75.09-27.82 73.8-27.82L73.8-27.82 68.8-27.82 68.8-20.14 71.06-23.58Q74.17-20.63 75.95-18.64L75.95-18.64Q75.79-17.78 74.55-17.78L74.55-17.78 68.8-17.78 68.8-7.04Q71.6-8.49 74.98-10.42L74.98-10.42 75.25-9.94Q73.69-7.25 70.63-2.95L70.63-2.95Q71.76-3.49 73.93-4.7 76.11-5.91 76.32-6.02L76.32-6.02 76.32-23.36 72.83-23.36 72.51-24.98 75.46-24.98 78.63-29.17 83.9-24.98Q85.4-29.92 86.74-36.31L86.74-36.31 83.74-36.31 83.25-37.87 87.12-37.87Q88.62-45.06 88.84-46.94L88.84-46.94 96.95-44.9Q96.52-43.67 94.75-43.72L94.75-43.72Q94.21-41.14 93.51-37.87L93.51-37.87 98.56-37.87 101.84-42.32Q105.6-39.26 107.74-37.17L107.74-37.17Q107.53-36.31 106.24-36.31L106.24-36.31 93.13-36.31 92.49-33.57 100.6-32.76Q100.44-31.53 98.56-31.26L98.56-31.26 98.56-24.55 101.25-28.2Q104.74-25.3 106.78-23.31L106.78-23.31Q106.62-22.45 105.33-22.45L105.33-22.45 98.56-22.45 98.56-14.61 99.58-14.61 102.86-19.01Q106.46-16.01 108.6-13.96L108.6-13.96Q108.39-13.11 107.15-13.11L107.15-13.11 98.56-13.11 98.56-5.26Q98.56-4.83 96.89-4.22 95.23-3.6 93.51-3.6L93.51-3.6 92.38-3.6 92.38-13.11 84-13.11 83.52-14.61 92.38-14.61 92.38-22.45 90.13-22.45 87.71-19.66 82.93-22.56Z" transform="translate(-5, 47.04999923706055)"></path></g> <!----> <!----> <!----> <!----> <!----> <!----> <!----></g></g> <g data-gra="path-slogan" fill-rule="" class="tp-slogan iconsvg-slogansvg" fill="#00c5fb" transform="translate(20.514999389648438,58.209999084472656)"><!----> <!----> <g transform="scale(1, 1)"><g transform="scale(1)"><path d="M6.56 0L5.72-2.48L2.25-2.48L1.36 0L0.19 0L3.42-8.58L4.73-8.58L7.83 0L6.56 0ZM3.98-7.31L2.63-3.52L5.30-3.52L4.03-7.31L3.98-7.31ZM15.14-6.09L15.14-6.09L14.06-6.09Q13.97-7.73 11.91-7.83L11.91-7.83Q9.98-7.78 9.98-6.33L9.98-6.33Q9.98-5.39 11.02-5.25L11.02-5.25L13.45-4.69Q15.38-4.22 15.38-2.34L15.38-2.34Q15.33 0.05 12 0.14L12 0.14Q10.17 0.14 9.42-0.61L9.42-0.61Q8.48-1.31 8.53-2.77L8.53-2.77L9.66-2.77Q9.70-0.80 12-0.75L12-0.75Q14.25-0.80 14.30-2.20L14.30-2.20Q14.48-3.38 12.42-3.75L12.42-3.75L10.64-4.13Q8.81-4.64 8.81-6.19L8.81-6.19Q8.95-8.72 11.81-8.81L11.81-8.81Q15.05-8.81 15.14-6.09ZM19.36-4.31L18-3.05L18 0L16.83 0L16.83-8.58L18-8.58L18-4.41L22.17-8.58L23.81-8.58L20.20-5.11L23.91 0L22.36 0L19.36-4.31ZM35.30-6.05L35.30-6.05L34.17-6.05Q33.75-7.78 31.78-7.83L31.78-7.83Q29.06-7.69 28.97-4.36L28.97-4.36Q28.97-0.80 31.83-0.80L31.83-0.80Q33.80-0.84 34.27-3.19L34.27-3.19L35.39-3.19Q34.88 0.05 31.59 0.14L31.59 0.14Q27.84 0 27.75-4.31L27.75-4.31Q27.94-8.63 31.78-8.81L31.78-8.81Q34.83-8.72 35.30-6.05ZM37.92-5.06L42.42-5.06L42.42-8.58L43.59-8.58L43.59 0L42.42 0L42.42-3.98L37.92-3.98L37.92 0L36.75 0L36.75-8.58L37.92-8.58L37.92-5.06ZM51.05 0L50.20-2.48L46.73-2.48L45.84 0L44.67 0L47.91-8.58L49.22-8.58L52.31 0L51.05 0ZM48.47-7.31L47.11-3.52L49.78-3.52L48.52-7.31L48.47-7.31ZM53.53-8.58L54.70-8.58L54.70 0L53.53 0L53.53-8.58ZM58.08-8.58L62.39-1.64L62.39-8.58L63.52-8.58L63.52 0L62.20 0L57.84-6.94L57.80-6.94L57.80 0L56.67 0L56.67-8.58L58.08-8.58Z" transform="translate(-0.1875, 8.8125)"></path></g></g></g></g></g><defs v-gra="od"></defs></svg>