<?xml version="1.0" encoding="utf-8" standalone="no"?>
<!DOCTYPE svg PUBLIC "-//W3C//DTD SVG 1.1//EN"
  "http://www.w3.org/Graphics/SVG/1.1/DTD/svg11.dtd">
<svg height="576pt" version="1.1" viewBox="0 0 612 576" width="612pt" xmlns="http://www.w3.org/2000/svg" xmlns:xlink="http://www.w3.org/1999/xlink">
 <metadata>
  <rdf:RDF xmlns:cc="http://creativecommons.org/ns#" xmlns:dc="http://purl.org/dc/elements/1.1/" xmlns:rdf="http://www.w3.org/1999/02/22-rdf-syntax-ns#">
   <cc:Work>
    <dc:type rdf:resource="http://purl.org/dc/dcmitype/StillImage"/>
    <dc:date>2021-10-22T09:44:13.112372</dc:date>
    <dc:format>image/svg+xml</dc:format>
    <dc:creator>
     <cc:Agent>
      <dc:title>Matplotlib v3.4.3, https://matplotlib.org/</dc:title>
     </cc:Agent>
    </dc:creator>
   </cc:Work>
  </rdf:RDF>
 </metadata>
 <defs>
  <style type="text/css">*{stroke-linecap:butt;stroke-linejoin:round;}</style>
 </defs>
 <g id="figure_1">
  <g id="patch_1">
   <path d="M 0 576 
L 612 576 
L 612 0 
L 0 0 
z
" style="fill:#ffffff;"/>
  </g>
  <g id="axes_1">
   <g id="patch_2">
    <path d="M 76.5 512.64 
L 550.8 512.64 
L 550.8 69.12 
L 76.5 69.12 
z
" style="fill:#ffffff;"/>
   </g>
   <g id="matplotlib.axis_1">
    <g id="xtick_1">
     <g id="line2d_1">
      <defs>
       <path d="M 0 0 
L 0 3.5 
" id="mc6260884a3" style="stroke:#000000;stroke-width:0.8;"/>
      </defs>
      <g>
       <use style="stroke:#000000;stroke-width:0.8;" x="96.160104" xlink:href="#mc6260884a3" y="512.64"/>
      </g>
     </g>
     <g id="text_1">
      <!-- 0 -->
      <g transform="translate(92.410104 529.572813)scale(0.15 -0.15)">
       <defs>
        <path d="M 2966 2119 
Q 2966 1484 2788 934 
Q 2681 597 2501 381 
Q 2322 166 2094 39 
Q 1866 -88 1597 -88 
Q 1291 -88 1044 68 
Q 797 225 606 516 
Q 469 728 366 1081 
Q 231 1559 231 2069 
Q 231 2759 425 3338 
Q 584 3816 909 4070 
Q 1234 4325 1597 4325 
Q 1966 4325 2286 4073 
Q 2606 3822 2756 3397 
Q 2966 2813 2966 2119 
z
M 2003 2125 
Q 2003 3238 1991 3422 
Q 1959 3856 1841 4009 
Q 1763 4109 1588 4109 
Q 1453 4109 1375 4034 
Q 1259 3925 1218 3648 
Q 1178 3372 1178 1719 
Q 1178 819 1241 513 
Q 1288 291 1375 216 
Q 1463 141 1606 141 
Q 1763 141 1841 241 
Q 1972 416 1991 781 
L 2003 2125 
z
" id="TimesNewRomanPS-BoldMT-30" transform="scale(0.015625)"/>
       </defs>
       <use xlink:href="#TimesNewRomanPS-BoldMT-30"/>
      </g>
     </g>
    </g>
    <g id="xtick_2">
     <g id="line2d_2">
      <g>
       <use style="stroke:#000000;stroke-width:0.8;" x="120.735233" xlink:href="#mc6260884a3" y="512.64"/>
      </g>
     </g>
     <g id="text_2">
      <!-- 1 -->
      <g transform="translate(116.985233 529.572813)scale(0.15 -0.15)">
       <defs>
        <path d="M 2084 4325 
L 2084 859 
Q 2084 469 2118 361 
Q 2153 253 2262 184 
Q 2372 116 2613 116 
L 2709 116 
L 2709 0 
L 478 0 
L 478 116 
L 591 116 
Q 863 116 978 178 
Q 1094 241 1134 350 
Q 1175 459 1175 859 
L 1175 3056 
Q 1175 3350 1147 3423 
Q 1119 3497 1042 3548 
Q 966 3600 866 3600 
Q 706 3600 478 3500 
L 422 3613 
L 1981 4325 
L 2084 4325 
z
" id="TimesNewRomanPS-BoldMT-31" transform="scale(0.015625)"/>
       </defs>
       <use xlink:href="#TimesNewRomanPS-BoldMT-31"/>
      </g>
     </g>
    </g>
    <g id="xtick_3">
     <g id="line2d_3">
      <g>
       <use style="stroke:#000000;stroke-width:0.8;" x="145.310363" xlink:href="#mc6260884a3" y="512.64"/>
      </g>
     </g>
     <g id="text_3">
      <!-- 2 -->
      <g transform="translate(141.560363 529.572813)scale(0.15 -0.15)">
       <defs>
        <path d="M 2650 0 
L 156 0 
L 156 69 
Q 1303 1434 1548 1906 
Q 1794 2378 1794 2828 
Q 1794 3156 1591 3373 
Q 1388 3591 1094 3591 
Q 613 3591 347 3109 
L 231 3150 
Q 400 3750 744 4037 
Q 1088 4325 1538 4325 
Q 1859 4325 2125 4175 
Q 2391 4025 2541 3764 
Q 2691 3503 2691 3275 
Q 2691 2859 2459 2431 
Q 2144 1853 1081 819 
L 1997 819 
Q 2334 819 2436 847 
Q 2538 875 2603 942 
Q 2669 1009 2775 1225 
L 2888 1225 
L 2650 0 
z
" id="TimesNewRomanPS-BoldMT-32" transform="scale(0.015625)"/>
       </defs>
       <use xlink:href="#TimesNewRomanPS-BoldMT-32"/>
      </g>
     </g>
    </g>
    <g id="xtick_4">
     <g id="line2d_4">
      <g>
       <use style="stroke:#000000;stroke-width:0.8;" x="169.885492" xlink:href="#mc6260884a3" y="512.64"/>
      </g>
     </g>
     <g id="text_4">
      <!-- 3 -->
      <g transform="translate(166.135492 529.572813)scale(0.15 -0.15)">
       <defs>
        <path d="M 947 2125 
L 947 2234 
Q 1303 2338 1440 2427 
Q 1578 2516 1678 2698 
Q 1778 2881 1778 3069 
Q 1778 3328 1589 3514 
Q 1400 3700 1119 3700 
Q 681 3700 375 3238 
L 259 3278 
Q 484 3800 836 4062 
Q 1188 4325 1619 4325 
Q 2059 4325 2345 4056 
Q 2631 3788 2631 3428 
Q 2631 3194 2498 2976 
Q 2366 2759 2081 2594 
Q 2447 2416 2639 2155 
Q 2831 1894 2831 1500 
Q 2831 838 2351 373 
Q 1872 -91 1066 -91 
Q 528 -91 281 88 
Q 103 213 103 409 
Q 103 553 206 654 
Q 309 756 444 756 
Q 547 756 638 713 
Q 688 688 992 439 
Q 1297 191 1563 191 
Q 1794 191 1959 373 
Q 2125 556 2125 838 
Q 2125 1266 1825 1627 
Q 1525 1988 947 2125 
z
" id="TimesNewRomanPS-BoldMT-33" transform="scale(0.015625)"/>
       </defs>
       <use xlink:href="#TimesNewRomanPS-BoldMT-33"/>
      </g>
     </g>
    </g>
    <g id="xtick_5">
     <g id="line2d_5">
      <g>
       <use style="stroke:#000000;stroke-width:0.8;" x="194.460622" xlink:href="#mc6260884a3" y="512.64"/>
      </g>
     </g>
     <g id="text_5">
      <!-- 4 -->
      <g transform="translate(190.710622 529.572813)scale(0.15 -0.15)">
       <defs>
        <path d="M 159 1597 
L 2172 4325 
L 2553 4325 
L 2553 1597 
L 2941 1597 
L 2941 950 
L 2553 950 
L 2553 0 
L 1694 0 
L 1694 950 
L 159 950 
L 159 1597 
z
M 463 1597 
L 1694 1597 
L 1694 3269 
L 463 1597 
z
" id="TimesNewRomanPS-BoldMT-34" transform="scale(0.015625)"/>
       </defs>
       <use xlink:href="#TimesNewRomanPS-BoldMT-34"/>
      </g>
     </g>
    </g>
    <g id="xtick_6">
     <g id="line2d_6">
      <g>
       <use style="stroke:#000000;stroke-width:0.8;" x="219.035751" xlink:href="#mc6260884a3" y="512.64"/>
      </g>
     </g>
     <g id="text_6">
      <!--  5 -->
      <g transform="translate(213.410751 529.572813)scale(0.15 -0.15)">
       <defs>
        <path id="TimesNewRomanPS-BoldMT-20" transform="scale(0.015625)"/>
        <path d="M 975 4238 
L 2959 4238 
L 2644 3431 
L 975 3431 
L 816 3009 
Q 1894 2969 2475 2472 
Q 2953 2063 2953 1453 
Q 2953 1063 2731 689 
Q 2509 316 2106 114 
Q 1703 -88 1222 -88 
Q 703 -88 425 106 
Q 231 244 231 419 
Q 231 553 332 656 
Q 434 759 569 759 
Q 691 759 816 709 
Q 941 659 1244 447 
Q 1434 316 1572 266 
Q 1669 228 1791 228 
Q 2047 228 2226 415 
Q 2406 603 2406 866 
Q 2406 1416 1856 1759 
Q 1306 2103 469 2103 
Q 384 2103 216 2100 
L 975 4238 
z
" id="TimesNewRomanPS-BoldMT-35" transform="scale(0.015625)"/>
       </defs>
       <use xlink:href="#TimesNewRomanPS-BoldMT-20"/>
       <use x="25" xlink:href="#TimesNewRomanPS-BoldMT-35"/>
      </g>
     </g>
    </g>
    <g id="xtick_7">
     <g id="line2d_7">
      <g>
       <use style="stroke:#000000;stroke-width:0.8;" x="243.610881" xlink:href="#mc6260884a3" y="512.64"/>
      </g>
     </g>
     <g id="text_7">
      <!-- 6 -->
      <g transform="translate(239.860881 529.572813)scale(0.15 -0.15)">
       <defs>
        <path d="M 3006 4325 
L 3006 4238 
Q 2441 4094 2098 3867 
Q 1756 3641 1557 3317 
Q 1359 2994 1250 2516 
Q 1388 2609 1478 2638 
Q 1681 2700 1888 2700 
Q 2363 2700 2680 2354 
Q 2997 2009 2997 1413 
Q 2997 994 2825 644 
Q 2653 294 2337 103 
Q 2022 -88 1663 -88 
Q 1272 -88 940 126 
Q 609 341 423 753 
Q 238 1166 238 1650 
Q 238 2363 580 2977 
Q 922 3591 1551 3955 
Q 2181 4319 3006 4325 
z
M 1209 2263 
Q 1184 1831 1184 1631 
Q 1184 1200 1267 797 
Q 1350 394 1494 231 
Q 1597 116 1738 116 
Q 1881 116 1993 283 
Q 2106 450 2106 963 
Q 2106 1825 1897 2153 
Q 1763 2366 1534 2366 
Q 1409 2366 1209 2263 
z
" id="TimesNewRomanPS-BoldMT-36" transform="scale(0.015625)"/>
       </defs>
       <use xlink:href="#TimesNewRomanPS-BoldMT-36"/>
      </g>
     </g>
    </g>
    <g id="xtick_8">
     <g id="line2d_8">
      <g>
       <use style="stroke:#000000;stroke-width:0.8;" x="268.18601" xlink:href="#mc6260884a3" y="512.64"/>
      </g>
     </g>
     <g id="text_8">
      <!-- 7 -->
      <g transform="translate(264.43601 529.572813)scale(0.15 -0.15)">
       <defs>
        <path d="M 1134 -88 
L 2288 3409 
L 1409 3409 
Q 894 3409 634 3275 
Q 453 3181 334 2922 
L 216 2922 
L 522 4238 
L 3047 4238 
L 1625 -88 
L 1134 -88 
z
" id="TimesNewRomanPS-BoldMT-37" transform="scale(0.015625)"/>
       </defs>
       <use xlink:href="#TimesNewRomanPS-BoldMT-37"/>
      </g>
     </g>
    </g>
    <g id="xtick_9">
     <g id="line2d_9">
      <g>
       <use style="stroke:#000000;stroke-width:0.8;" x="292.76114" xlink:href="#mc6260884a3" y="512.64"/>
      </g>
     </g>
     <g id="text_9">
      <!-- 8 -->
      <g transform="translate(289.01114 529.572813)scale(0.15 -0.15)">
       <defs>
        <path d="M 2181 2394 
Q 2628 2066 2801 1783 
Q 2975 1500 2975 1134 
Q 2975 622 2589 267 
Q 2203 -88 1541 -88 
Q 913 -88 569 221 
Q 225 531 225 978 
Q 225 1319 423 1575 
Q 622 1831 1084 2044 
Q 581 2428 439 2672 
Q 297 2916 297 3238 
Q 297 3663 658 3986 
Q 1019 4309 1647 4309 
Q 2253 4309 2579 4023 
Q 2906 3738 2906 3338 
Q 2906 3038 2729 2808 
Q 2553 2578 2181 2394 
z
M 1944 2553 
Q 2059 2709 2115 2903 
Q 2172 3097 2172 3328 
Q 2172 3734 1997 3950 
Q 1866 4116 1634 4116 
Q 1425 4116 1278 3964 
Q 1131 3813 1131 3588 
Q 1131 3359 1295 3114 
Q 1459 2869 1944 2553 
z
M 1319 1894 
Q 1222 1806 1181 1734 
Q 1119 1625 1069 1415 
Q 1019 1206 1019 978 
Q 1019 684 1094 486 
Q 1169 288 1308 200 
Q 1447 113 1594 113 
Q 1822 113 1978 280 
Q 2134 447 2134 738 
Q 2134 1344 1319 1894 
z
" id="TimesNewRomanPS-BoldMT-38" transform="scale(0.015625)"/>
       </defs>
       <use xlink:href="#TimesNewRomanPS-BoldMT-38"/>
      </g>
     </g>
    </g>
    <g id="xtick_10">
     <g id="line2d_10">
      <g>
       <use style="stroke:#000000;stroke-width:0.8;" x="317.336269" xlink:href="#mc6260884a3" y="512.64"/>
      </g>
     </g>
     <g id="text_10">
      <!-- 9 -->
      <g transform="translate(313.586269 529.572813)scale(0.15 -0.15)">
       <defs>
        <path d="M 197 -88 
L 197 0 
Q 716 119 1077 350 
Q 1438 581 1648 922 
Q 1859 1263 1944 1706 
Q 1750 1606 1614 1567 
Q 1478 1528 1328 1528 
Q 847 1528 526 1875 
Q 206 2222 206 2825 
Q 206 3244 379 3592 
Q 553 3941 875 4133 
Q 1197 4325 1544 4325 
Q 1916 4325 2247 4112 
Q 2578 3900 2775 3497 
Q 2972 3094 2972 2578 
Q 2972 1909 2651 1296 
Q 2331 684 1697 314 
Q 1063 -56 197 -88 
z
M 1991 1969 
Q 2022 2319 2022 2584 
Q 2022 3153 1891 3644 
Q 1816 3916 1669 4044 
Q 1591 4113 1466 4113 
Q 1309 4113 1222 3978 
Q 1100 3794 1100 3275 
Q 1100 2409 1306 2081 
Q 1441 1869 1669 1869 
Q 1791 1869 1991 1969 
z
" id="TimesNewRomanPS-BoldMT-39" transform="scale(0.015625)"/>
       </defs>
       <use xlink:href="#TimesNewRomanPS-BoldMT-39"/>
      </g>
     </g>
    </g>
    <g id="xtick_11">
     <g id="line2d_11">
      <g>
       <use style="stroke:#000000;stroke-width:0.8;" x="341.911399" xlink:href="#mc6260884a3" y="512.64"/>
      </g>
     </g>
     <g id="text_11">
      <!-- 10 -->
      <g transform="translate(334.411399 529.572813)scale(0.15 -0.15)">
       <use xlink:href="#TimesNewRomanPS-BoldMT-31"/>
       <use x="50" xlink:href="#TimesNewRomanPS-BoldMT-30"/>
      </g>
     </g>
    </g>
    <g id="xtick_12">
     <g id="line2d_12">
      <g>
       <use style="stroke:#000000;stroke-width:0.8;" x="366.486528" xlink:href="#mc6260884a3" y="512.64"/>
      </g>
     </g>
     <g id="text_12">
      <!-- 11 -->
      <g transform="translate(359.399028 529.572813)scale(0.15 -0.15)">
       <use xlink:href="#TimesNewRomanPS-BoldMT-31"/>
       <use x="44.5" xlink:href="#TimesNewRomanPS-BoldMT-31"/>
      </g>
     </g>
    </g>
    <g id="xtick_13">
     <g id="line2d_13">
      <g>
       <use style="stroke:#000000;stroke-width:0.8;" x="391.061658" xlink:href="#mc6260884a3" y="512.64"/>
      </g>
     </g>
     <g id="text_13">
      <!-- 12 -->
      <g transform="translate(383.561658 529.572813)scale(0.15 -0.15)">
       <use xlink:href="#TimesNewRomanPS-BoldMT-31"/>
       <use x="50" xlink:href="#TimesNewRomanPS-BoldMT-32"/>
      </g>
     </g>
    </g>
    <g id="xtick_14">
     <g id="line2d_14">
      <g>
       <use style="stroke:#000000;stroke-width:0.8;" x="415.636788" xlink:href="#mc6260884a3" y="512.64"/>
      </g>
     </g>
     <g id="text_14">
      <!-- 13 -->
      <g transform="translate(408.136788 529.572813)scale(0.15 -0.15)">
       <use xlink:href="#TimesNewRomanPS-BoldMT-31"/>
       <use x="50" xlink:href="#TimesNewRomanPS-BoldMT-33"/>
      </g>
     </g>
    </g>
    <g id="xtick_15">
     <g id="line2d_15">
      <g>
       <use style="stroke:#000000;stroke-width:0.8;" x="440.211917" xlink:href="#mc6260884a3" y="512.64"/>
      </g>
     </g>
     <g id="text_15">
      <!-- 14 -->
      <g transform="translate(432.711917 529.572813)scale(0.15 -0.15)">
       <use xlink:href="#TimesNewRomanPS-BoldMT-31"/>
       <use x="50" xlink:href="#TimesNewRomanPS-BoldMT-34"/>
      </g>
     </g>
    </g>
    <g id="xtick_16">
     <g id="line2d_16">
      <g>
       <use style="stroke:#000000;stroke-width:0.8;" x="464.787047" xlink:href="#mc6260884a3" y="512.64"/>
      </g>
     </g>
     <g id="text_16">
      <!-- 15 -->
      <g transform="translate(457.287047 529.572813)scale(0.15 -0.15)">
       <use xlink:href="#TimesNewRomanPS-BoldMT-31"/>
       <use x="50" xlink:href="#TimesNewRomanPS-BoldMT-35"/>
      </g>
     </g>
    </g>
    <g id="xtick_17">
     <g id="line2d_17">
      <g>
       <use style="stroke:#000000;stroke-width:0.8;" x="489.362176" xlink:href="#mc6260884a3" y="512.64"/>
      </g>
     </g>
     <g id="text_17">
      <!-- 16 -->
      <g transform="translate(481.862176 529.572813)scale(0.15 -0.15)">
       <use xlink:href="#TimesNewRomanPS-BoldMT-31"/>
       <use x="50" xlink:href="#TimesNewRomanPS-BoldMT-36"/>
      </g>
     </g>
    </g>
    <g id="xtick_18">
     <g id="line2d_18">
      <g>
       <use style="stroke:#000000;stroke-width:0.8;" x="513.937306" xlink:href="#mc6260884a3" y="512.64"/>
      </g>
     </g>
     <g id="text_18">
      <!-- 17 -->
      <g transform="translate(506.437306 529.572813)scale(0.15 -0.15)">
       <use xlink:href="#TimesNewRomanPS-BoldMT-31"/>
       <use x="50" xlink:href="#TimesNewRomanPS-BoldMT-37"/>
      </g>
     </g>
    </g>
    <g id="xtick_19">
     <g id="line2d_19">
      <g>
       <use style="stroke:#000000;stroke-width:0.8;" x="538.512435" xlink:href="#mc6260884a3" y="512.64"/>
      </g>
     </g>
     <g id="text_19">
      <!-- 18 -->
      <g transform="translate(531.012435 529.572813)scale(0.15 -0.15)">
       <use xlink:href="#TimesNewRomanPS-BoldMT-31"/>
       <use x="50" xlink:href="#TimesNewRomanPS-BoldMT-38"/>
      </g>
     </g>
    </g>
    <g id="text_20">
     <!-- Epoch -->
     <g transform="translate(279.610938 553.336094)scale(0.25 -0.25)">
      <defs>
       <path d="M 1744 3994 
L 1744 2269 
L 1828 2269 
Q 2231 2269 2412 2522 
Q 2594 2775 2644 3269 
L 2763 3269 
L 2763 1050 
L 2644 1050 
Q 2606 1413 2486 1644 
Q 2366 1875 2206 1954 
Q 2047 2034 1744 2034 
L 1744 841 
Q 1744 491 1773 412 
Q 1803 334 1884 284 
Q 1966 234 2147 234 
L 2400 234 
Q 2994 234 3351 509 
Q 3709 784 3866 1347 
L 3981 1347 
L 3791 0 
L 128 0 
L 128 116 
L 269 116 
Q 453 116 566 181 
Q 647 225 691 331 
Q 725 406 725 725 
L 725 3513 
Q 725 3800 709 3866 
Q 678 3975 594 4034 
Q 475 4122 269 4122 
L 128 4122 
L 128 4238 
L 3675 4238 
L 3675 2984 
L 3556 2984 
Q 3466 3444 3302 3644 
Q 3138 3844 2838 3938 
Q 2663 3994 2181 3994 
L 1744 3994 
z
" id="TimesNewRomanPS-BoldMT-45" transform="scale(0.015625)"/>
       <path d="M 1347 297 
L 1347 -791 
Q 1347 -1016 1383 -1097 
Q 1419 -1178 1494 -1215 
Q 1569 -1253 1788 -1253 
L 1788 -1369 
L 122 -1369 
L 122 -1253 
Q 316 -1247 409 -1144 
Q 472 -1072 472 -772 
L 472 2313 
Q 472 2622 400 2708 
Q 328 2794 122 2806 
L 122 2922 
L 1347 2922 
L 1347 2538 
Q 1500 2763 1659 2863 
Q 1888 3009 2156 3009 
Q 2478 3009 2742 2806 
Q 3006 2603 3143 2245 
Q 3281 1888 3281 1475 
Q 3281 1031 3139 664 
Q 2997 297 2726 104 
Q 2456 -88 2125 -88 
Q 1884 -88 1675 19 
Q 1519 100 1347 297 
z
M 1347 613 
Q 1616 231 1922 231 
Q 2091 231 2200 409 
Q 2363 672 2363 1409 
Q 2363 2166 2184 2444 
Q 2066 2628 1866 2628 
Q 1550 2628 1347 2172 
L 1347 613 
z
" id="TimesNewRomanPS-BoldMT-70" transform="scale(0.015625)"/>
       <path d="M 1594 3009 
Q 1975 3009 2303 2812 
Q 2631 2616 2801 2253 
Q 2972 1891 2972 1459 
Q 2972 838 2656 419 
Q 2275 -88 1603 -88 
Q 944 -88 587 375 
Q 231 838 231 1447 
Q 231 2075 595 2542 
Q 959 3009 1594 3009 
z
M 1606 2788 
Q 1447 2788 1333 2667 
Q 1219 2547 1183 2192 
Q 1147 1838 1147 1206 
Q 1147 872 1191 581 
Q 1225 359 1337 243 
Q 1450 128 1594 128 
Q 1734 128 1828 206 
Q 1950 313 1991 503 
Q 2053 800 2053 1703 
Q 2053 2234 1993 2432 
Q 1934 2631 1819 2722 
Q 1738 2788 1606 2788 
z
" id="TimesNewRomanPS-BoldMT-6f" transform="scale(0.015625)"/>
       <path d="M 2600 753 
L 2697 678 
Q 2491 291 2183 101 
Q 1875 -88 1528 -88 
Q 944 -88 594 353 
Q 244 794 244 1413 
Q 244 2009 563 2463 
Q 947 3009 1622 3009 
Q 2075 3009 2342 2781 
Q 2609 2553 2609 2272 
Q 2609 2094 2501 1987 
Q 2394 1881 2219 1881 
Q 2034 1881 1914 2003 
Q 1794 2125 1766 2438 
Q 1747 2634 1675 2713 
Q 1603 2791 1506 2791 
Q 1356 2791 1250 2631 
Q 1088 2391 1088 1894 
Q 1088 1481 1219 1104 
Q 1350 728 1578 544 
Q 1750 409 1984 409 
Q 2138 409 2275 481 
Q 2413 553 2600 753 
z
" id="TimesNewRomanPS-BoldMT-63" transform="scale(0.015625)"/>
       <path d="M 1409 4238 
L 1409 2547 
Q 1650 2800 1850 2904 
Q 2050 3009 2266 3009 
Q 2541 3009 2736 2853 
Q 2931 2697 2995 2486 
Q 3059 2275 3059 1775 
L 3059 634 
Q 3059 300 3121 217 
Q 3184 134 3375 113 
L 3375 0 
L 1894 0 
L 1894 113 
Q 2050 134 2128 238 
Q 2184 319 2184 634 
L 2184 1938 
Q 2184 2300 2156 2392 
Q 2128 2484 2061 2536 
Q 1994 2588 1909 2588 
Q 1784 2588 1665 2502 
Q 1547 2416 1409 2200 
L 1409 634 
Q 1409 322 1456 244 
Q 1516 138 1700 113 
L 1700 0 
L 219 0 
L 219 113 
Q 403 131 481 231 
Q 534 300 534 634 
L 534 3603 
Q 534 3934 473 4015 
Q 413 4097 219 4122 
L 219 4238 
L 1409 4238 
z
" id="TimesNewRomanPS-BoldMT-68" transform="scale(0.015625)"/>
      </defs>
      <use xlink:href="#TimesNewRomanPS-BoldMT-45"/>
      <use x="66.699219" xlink:href="#TimesNewRomanPS-BoldMT-70"/>
      <use x="122.314453" xlink:href="#TimesNewRomanPS-BoldMT-6f"/>
      <use x="172.314453" xlink:href="#TimesNewRomanPS-BoldMT-63"/>
      <use x="216.699219" xlink:href="#TimesNewRomanPS-BoldMT-68"/>
     </g>
    </g>
   </g>
   <g id="matplotlib.axis_2">
    <g id="ytick_1">
     <g id="line2d_20">
      <defs>
       <path d="M 0 0 
L -3.5 0 
" id="md80b21cb0f" style="stroke:#000000;stroke-width:0.8;"/>
      </defs>
      <g>
       <use style="stroke:#000000;stroke-width:0.8;" x="76.5" xlink:href="#md80b21cb0f" y="512.64"/>
      </g>
     </g>
     <g id="text_21">
      <!-- 0.0 -->
      <g transform="translate(50.75 517.606406)scale(0.15 -0.15)">
       <defs>
        <path d="M 800 963 
Q 1019 963 1170 809 
Q 1322 656 1322 441 
Q 1322 225 1169 73 
Q 1016 -78 800 -78 
Q 584 -78 432 73 
Q 281 225 281 441 
Q 281 656 432 809 
Q 584 963 800 963 
z
" id="TimesNewRomanPS-BoldMT-2e" transform="scale(0.015625)"/>
       </defs>
       <use xlink:href="#TimesNewRomanPS-BoldMT-30"/>
       <use x="50" xlink:href="#TimesNewRomanPS-BoldMT-2e"/>
       <use x="75" xlink:href="#TimesNewRomanPS-BoldMT-30"/>
      </g>
     </g>
    </g>
    <g id="ytick_2">
     <g id="line2d_21">
      <g>
       <use style="stroke:#000000;stroke-width:0.8;" x="76.5" xlink:href="#md80b21cb0f" y="423.936"/>
      </g>
     </g>
     <g id="text_22">
      <!-- 0.2 -->
      <g transform="translate(50.75 428.902406)scale(0.15 -0.15)">
       <use xlink:href="#TimesNewRomanPS-BoldMT-30"/>
       <use x="50" xlink:href="#TimesNewRomanPS-BoldMT-2e"/>
       <use x="75" xlink:href="#TimesNewRomanPS-BoldMT-32"/>
      </g>
     </g>
    </g>
    <g id="ytick_3">
     <g id="line2d_22">
      <g>
       <use style="stroke:#000000;stroke-width:0.8;" x="76.5" xlink:href="#md80b21cb0f" y="335.232"/>
      </g>
     </g>
     <g id="text_23">
      <!-- 0.4 -->
      <g transform="translate(50.75 340.198406)scale(0.15 -0.15)">
       <use xlink:href="#TimesNewRomanPS-BoldMT-30"/>
       <use x="50" xlink:href="#TimesNewRomanPS-BoldMT-2e"/>
       <use x="75" xlink:href="#TimesNewRomanPS-BoldMT-34"/>
      </g>
     </g>
    </g>
    <g id="ytick_4">
     <g id="line2d_23">
      <g>
       <use style="stroke:#000000;stroke-width:0.8;" x="76.5" xlink:href="#md80b21cb0f" y="246.528"/>
      </g>
     </g>
     <g id="text_24">
      <!-- 0.6 -->
      <g transform="translate(50.75 251.494406)scale(0.15 -0.15)">
       <use xlink:href="#TimesNewRomanPS-BoldMT-30"/>
       <use x="50" xlink:href="#TimesNewRomanPS-BoldMT-2e"/>
       <use x="75" xlink:href="#TimesNewRomanPS-BoldMT-36"/>
      </g>
     </g>
    </g>
    <g id="ytick_5">
     <g id="line2d_24">
      <g>
       <use style="stroke:#000000;stroke-width:0.8;" x="76.5" xlink:href="#md80b21cb0f" y="157.824"/>
      </g>
     </g>
     <g id="text_25">
      <!-- 0.8 -->
      <g transform="translate(50.75 162.790406)scale(0.15 -0.15)">
       <use xlink:href="#TimesNewRomanPS-BoldMT-30"/>
       <use x="50" xlink:href="#TimesNewRomanPS-BoldMT-2e"/>
       <use x="75" xlink:href="#TimesNewRomanPS-BoldMT-38"/>
      </g>
     </g>
    </g>
    <g id="ytick_6">
     <g id="line2d_25">
      <g>
       <use style="stroke:#000000;stroke-width:0.8;" x="76.5" xlink:href="#md80b21cb0f" y="69.12"/>
      </g>
     </g>
     <g id="text_26">
      <!-- 1.0 -->
      <g transform="translate(50.75 74.086406)scale(0.15 -0.15)">
       <use xlink:href="#TimesNewRomanPS-BoldMT-31"/>
       <use x="50" xlink:href="#TimesNewRomanPS-BoldMT-2e"/>
       <use x="75" xlink:href="#TimesNewRomanPS-BoldMT-30"/>
      </g>
     </g>
    </g>
    <g id="text_27">
     <!-- Accuracy -->
     <g transform="translate(41.355469 341.553828)rotate(-90)scale(0.25 -0.25)">
      <defs>
       <path d="M 2663 1206 
L 1166 1206 
L 988 794 
Q 900 588 900 453 
Q 900 275 1044 191 
Q 1128 141 1459 116 
L 1459 0 
L 50 0 
L 50 116 
Q 278 150 425 304 
Q 572 459 788 944 
L 2303 4325 
L 2363 4325 
L 3891 850 
Q 4109 356 4250 228 
Q 4356 131 4550 116 
L 4550 0 
L 2500 0 
L 2500 116 
L 2584 116 
Q 2831 116 2931 184 
Q 3000 234 3000 328 
Q 3000 384 2981 444 
Q 2975 472 2888 678 
L 2663 1206 
z
M 2556 1438 
L 1925 2897 
L 1275 1438 
L 2556 1438 
z
" id="TimesNewRomanPS-BoldMT-41" transform="scale(0.015625)"/>
       <path d="M 3038 2922 
L 3038 634 
Q 3038 300 3100 217 
Q 3163 134 3353 113 
L 3353 0 
L 2163 0 
L 2163 391 
Q 1953 141 1743 26 
Q 1534 -88 1275 -88 
Q 1028 -88 836 64 
Q 644 216 578 419 
Q 513 622 513 1128 
L 513 2288 
Q 513 2619 452 2700 
Q 391 2781 197 2806 
L 197 2922 
L 1388 2922 
L 1388 925 
Q 1388 613 1417 522 
Q 1447 431 1511 384 
Q 1575 338 1659 338 
Q 1772 338 1863 397 
Q 1988 478 2163 725 
L 2163 2288 
Q 2163 2619 2102 2700 
Q 2041 2781 1847 2806 
L 1847 2922 
L 3038 2922 
z
" id="TimesNewRomanPS-BoldMT-75" transform="scale(0.015625)"/>
       <path d="M 1428 2922 
L 1428 2259 
Q 1719 2713 1937 2861 
Q 2156 3009 2359 3009 
Q 2534 3009 2639 2901 
Q 2744 2794 2744 2597 
Q 2744 2388 2642 2272 
Q 2541 2156 2397 2156 
Q 2231 2156 2109 2262 
Q 1988 2369 1966 2381 
Q 1934 2400 1894 2400 
Q 1803 2400 1722 2331 
Q 1594 2225 1528 2028 
Q 1428 1725 1428 1359 
L 1428 688 
L 1431 513 
Q 1431 334 1453 284 
Q 1491 200 1564 161 
Q 1638 122 1813 113 
L 1813 0 
L 234 0 
L 234 113 
Q 425 128 492 217 
Q 559 306 559 688 
L 559 2303 
Q 559 2553 534 2622 
Q 503 2709 443 2750 
Q 384 2791 234 2806 
L 234 2922 
L 1428 2922 
z
" id="TimesNewRomanPS-BoldMT-72" transform="scale(0.015625)"/>
       <path d="M 1828 431 
Q 1294 -41 869 -41 
Q 619 -41 453 123 
Q 288 288 288 534 
Q 288 869 575 1136 
Q 863 1403 1828 1847 
L 1828 2141 
Q 1828 2472 1792 2558 
Q 1756 2644 1656 2708 
Q 1556 2772 1431 2772 
Q 1228 2772 1097 2681 
Q 1016 2625 1016 2550 
Q 1016 2484 1103 2388 
Q 1222 2253 1222 2128 
Q 1222 1975 1108 1867 
Q 994 1759 809 1759 
Q 613 1759 480 1878 
Q 347 1997 347 2156 
Q 347 2381 525 2586 
Q 703 2791 1022 2900 
Q 1341 3009 1684 3009 
Q 2100 3009 2342 2832 
Q 2584 2656 2656 2450 
Q 2700 2319 2700 1847 
L 2700 713 
Q 2700 513 2715 461 
Q 2731 409 2762 384 
Q 2794 359 2834 359 
Q 2916 359 3000 475 
L 3094 400 
Q 2938 169 2770 64 
Q 2603 -41 2391 -41 
Q 2141 -41 2000 76 
Q 1859 194 1828 431 
z
M 1828 659 
L 1828 1638 
Q 1450 1416 1266 1163 
Q 1144 994 1144 822 
Q 1144 678 1247 569 
Q 1325 484 1466 484 
Q 1622 484 1828 659 
z
" id="TimesNewRomanPS-BoldMT-61" transform="scale(0.015625)"/>
       <path d="M 1556 -119 
L 613 2047 
Q 400 2538 298 2650 
Q 197 2763 53 2806 
L 53 2922 
L 1606 2922 
L 1606 2806 
Q 1453 2800 1390 2747 
Q 1328 2694 1328 2619 
Q 1328 2500 1484 2150 
L 1984 1006 
L 2325 1891 
Q 2509 2363 2509 2547 
Q 2509 2663 2432 2731 
Q 2356 2800 2163 2806 
L 2163 2922 
L 3141 2922 
L 3141 2806 
Q 2997 2791 2906 2695 
Q 2816 2600 2603 2047 
L 1769 -119 
Q 1453 -931 1300 -1119 
Q 1084 -1381 759 -1381 
Q 500 -1381 339 -1232 
Q 178 -1084 178 -875 
Q 178 -694 289 -575 
Q 400 -456 563 -456 
Q 719 -456 814 -556 
Q 909 -656 913 -866 
Q 916 -984 941 -1019 
Q 966 -1053 1013 -1053 
Q 1088 -1053 1172 -963 
Q 1297 -831 1466 -363 
L 1556 -119 
z
" id="TimesNewRomanPS-BoldMT-79" transform="scale(0.015625)"/>
      </defs>
      <use xlink:href="#TimesNewRomanPS-BoldMT-41"/>
      <use x="72.216797" xlink:href="#TimesNewRomanPS-BoldMT-63"/>
      <use x="116.601562" xlink:href="#TimesNewRomanPS-BoldMT-63"/>
      <use x="160.986328" xlink:href="#TimesNewRomanPS-BoldMT-75"/>
      <use x="216.601562" xlink:href="#TimesNewRomanPS-BoldMT-72"/>
      <use x="260.986328" xlink:href="#TimesNewRomanPS-BoldMT-61"/>
      <use x="310.986328" xlink:href="#TimesNewRomanPS-BoldMT-63"/>
      <use x="355.371094" xlink:href="#TimesNewRomanPS-BoldMT-79"/>
     </g>
    </g>
   </g>
   <g id="line2d_26">
    <path clip-path="url(#p3e5dee081f)" d="M 96.160104 512.64 
L 120.735233 352.351872 
L 145.310363 279.747648 
L 169.885492 217.03392 
L 194.460622 186.785856 
L 219.035751 175.653504 
L 243.610881 174.89952 
L 268.18601 160.618176 
L 292.76114 157.735296 
L 317.336269 151.437312 
L 341.911399 140.52672 
L 366.486528 140.792832 
L 391.061658 135.692352 
L 415.636788 120.923136 
L 440.211917 119.23776 
L 464.787047 114.625152 
L 489.362176 115.600896 
L 513.937306 116.088768 
L 538.512435 114.403392 
" style="fill:none;stroke:#bf00bf;stroke-dasharray:12.95,5.6;stroke-dashoffset:0;stroke-width:3.5;"/>
    <defs>
     <path d="M -3 0 
L 3 0 
M 0 3 
L 0 -3 
" id="m655d25da63" style="stroke:#bf00bf;"/>
    </defs>
    <g clip-path="url(#p3e5dee081f)">
     <use style="fill:#bf00bf;stroke:#bf00bf;" x="96.160104" xlink:href="#m655d25da63" y="512.64"/>
     <use style="fill:#bf00bf;stroke:#bf00bf;" x="120.735233" xlink:href="#m655d25da63" y="352.351872"/>
     <use style="fill:#bf00bf;stroke:#bf00bf;" x="145.310363" xlink:href="#m655d25da63" y="279.747648"/>
     <use style="fill:#bf00bf;stroke:#bf00bf;" x="169.885492" xlink:href="#m655d25da63" y="217.03392"/>
     <use style="fill:#bf00bf;stroke:#bf00bf;" x="194.460622" xlink:href="#m655d25da63" y="186.785856"/>
     <use style="fill:#bf00bf;stroke:#bf00bf;" x="219.035751" xlink:href="#m655d25da63" y="175.653504"/>
     <use style="fill:#bf00bf;stroke:#bf00bf;" x="243.610881" xlink:href="#m655d25da63" y="174.89952"/>
     <use style="fill:#bf00bf;stroke:#bf00bf;" x="268.18601" xlink:href="#m655d25da63" y="160.618176"/>
     <use style="fill:#bf00bf;stroke:#bf00bf;" x="292.76114" xlink:href="#m655d25da63" y="157.735296"/>
     <use style="fill:#bf00bf;stroke:#bf00bf;" x="317.336269" xlink:href="#m655d25da63" y="151.437312"/>
     <use style="fill:#bf00bf;stroke:#bf00bf;" x="341.911399" xlink:href="#m655d25da63" y="140.52672"/>
     <use style="fill:#bf00bf;stroke:#bf00bf;" x="366.486528" xlink:href="#m655d25da63" y="140.792832"/>
     <use style="fill:#bf00bf;stroke:#bf00bf;" x="391.061658" xlink:href="#m655d25da63" y="135.692352"/>
     <use style="fill:#bf00bf;stroke:#bf00bf;" x="415.636788" xlink:href="#m655d25da63" y="120.923136"/>
     <use style="fill:#bf00bf;stroke:#bf00bf;" x="440.211917" xlink:href="#m655d25da63" y="119.23776"/>
     <use style="fill:#bf00bf;stroke:#bf00bf;" x="464.787047" xlink:href="#m655d25da63" y="114.625152"/>
     <use style="fill:#bf00bf;stroke:#bf00bf;" x="489.362176" xlink:href="#m655d25da63" y="115.600896"/>
     <use style="fill:#bf00bf;stroke:#bf00bf;" x="513.937306" xlink:href="#m655d25da63" y="116.088768"/>
     <use style="fill:#bf00bf;stroke:#bf00bf;" x="538.512435" xlink:href="#m655d25da63" y="114.403392"/>
    </g>
   </g>
   <g id="line2d_27">
    <path clip-path="url(#p3e5dee081f)" d="M 96.160104 512.64 
L 120.735233 241.072704 
L 145.310363 229.851648 
L 169.885492 225.993024 
L 194.460622 232.77888 
L 219.035751 236.193984 
L 243.610881 243.245952 
L 268.18601 250.07616 
L 292.76114 247.6368 
L 317.336269 241.782336 
L 341.911399 252.781632 
L 366.486528 257.882112 
L 391.061658 254.245248 
L 415.636788 259.079616 
L 440.211917 262.006848 
L 464.787047 257.882112 
L 489.362176 257.128128 
L 513.937306 256.906368 
L 538.512435 254.245248 
" style="fill:none;stroke:#008000;stroke-dasharray:9.25,4;stroke-dashoffset:0;stroke-width:2.5;"/>
    <defs>
     <path d="M -0 4.242641 
L 4.242641 0 
L 0 -4.242641 
L -4.242641 -0 
z
" id="mafeb0eb6c7" style="stroke:#008000;stroke-linejoin:miter;"/>
    </defs>
    <g clip-path="url(#p3e5dee081f)">
     <use style="fill:#008000;stroke:#008000;stroke-linejoin:miter;" x="96.160104" xlink:href="#mafeb0eb6c7" y="512.64"/>
     <use style="fill:#008000;stroke:#008000;stroke-linejoin:miter;" x="120.735233" xlink:href="#mafeb0eb6c7" y="241.072704"/>
     <use style="fill:#008000;stroke:#008000;stroke-linejoin:miter;" x="145.310363" xlink:href="#mafeb0eb6c7" y="229.851648"/>
     <use style="fill:#008000;stroke:#008000;stroke-linejoin:miter;" x="169.885492" xlink:href="#mafeb0eb6c7" y="225.993024"/>
     <use style="fill:#008000;stroke:#008000;stroke-linejoin:miter;" x="194.460622" xlink:href="#mafeb0eb6c7" y="232.77888"/>
     <use style="fill:#008000;stroke:#008000;stroke-linejoin:miter;" x="219.035751" xlink:href="#mafeb0eb6c7" y="236.193984"/>
     <use style="fill:#008000;stroke:#008000;stroke-linejoin:miter;" x="243.610881" xlink:href="#mafeb0eb6c7" y="243.245952"/>
     <use style="fill:#008000;stroke:#008000;stroke-linejoin:miter;" x="268.18601" xlink:href="#mafeb0eb6c7" y="250.07616"/>
     <use style="fill:#008000;stroke:#008000;stroke-linejoin:miter;" x="292.76114" xlink:href="#mafeb0eb6c7" y="247.6368"/>
     <use style="fill:#008000;stroke:#008000;stroke-linejoin:miter;" x="317.336269" xlink:href="#mafeb0eb6c7" y="241.782336"/>
     <use style="fill:#008000;stroke:#008000;stroke-linejoin:miter;" x="341.911399" xlink:href="#mafeb0eb6c7" y="252.781632"/>
     <use style="fill:#008000;stroke:#008000;stroke-linejoin:miter;" x="366.486528" xlink:href="#mafeb0eb6c7" y="257.882112"/>
     <use style="fill:#008000;stroke:#008000;stroke-linejoin:miter;" x="391.061658" xlink:href="#mafeb0eb6c7" y="254.245248"/>
     <use style="fill:#008000;stroke:#008000;stroke-linejoin:miter;" x="415.636788" xlink:href="#mafeb0eb6c7" y="259.079616"/>
     <use style="fill:#008000;stroke:#008000;stroke-linejoin:miter;" x="440.211917" xlink:href="#mafeb0eb6c7" y="262.006848"/>
     <use style="fill:#008000;stroke:#008000;stroke-linejoin:miter;" x="464.787047" xlink:href="#mafeb0eb6c7" y="257.882112"/>
     <use style="fill:#008000;stroke:#008000;stroke-linejoin:miter;" x="489.362176" xlink:href="#mafeb0eb6c7" y="257.128128"/>
     <use style="fill:#008000;stroke:#008000;stroke-linejoin:miter;" x="513.937306" xlink:href="#mafeb0eb6c7" y="256.906368"/>
     <use style="fill:#008000;stroke:#008000;stroke-linejoin:miter;" x="538.512435" xlink:href="#mafeb0eb6c7" y="254.245248"/>
    </g>
   </g>
   <g id="line2d_28">
    <path clip-path="url(#p3e5dee081f)" d="M 96.160104 512.64 
L 120.735233 154.098432 
L 145.310363 152.324352 
L 169.885492 104.202432 
L 194.460622 99.855936 
L 219.035751 104.424192 
L 243.610881 105.26688 
L 268.18601 100.476864 
L 292.76114 98.747136 
L 317.336269 104.202432 
L 341.911399 102.029184 
L 366.486528 98.081856 
L 391.061658 112.008384 
L 415.636788 103.980672 
L 440.211917 98.303616 
L 464.787047 101.142144 
L 489.362176 99.190656 
L 513.937306 102.029184 
L 538.512435 98.968896 
" style="fill:none;stroke:#ff0000;stroke-dasharray:12.95,5.6;stroke-dashoffset:0;stroke-width:3.5;"/>
    <defs>
     <path d="M 0 3 
C 0.795609 3 1.55874 2.683901 2.12132 2.12132 
C 2.683901 1.55874 3 0.795609 3 0 
C 3 -0.795609 2.683901 -1.55874 2.12132 -2.12132 
C 1.55874 -2.683901 0.795609 -3 0 -3 
C -0.795609 -3 -1.55874 -2.683901 -2.12132 -2.12132 
C -2.683901 -1.55874 -3 -0.795609 -3 0 
C -3 0.795609 -2.683901 1.55874 -2.12132 2.12132 
C -1.55874 2.683901 -0.795609 3 0 3 
z
" id="md77b567824" style="stroke:#ff0000;"/>
    </defs>
    <g clip-path="url(#p3e5dee081f)">
     <use style="fill:#ff0000;stroke:#ff0000;" x="96.160104" xlink:href="#md77b567824" y="512.64"/>
     <use style="fill:#ff0000;stroke:#ff0000;" x="120.735233" xlink:href="#md77b567824" y="154.098432"/>
     <use style="fill:#ff0000;stroke:#ff0000;" x="145.310363" xlink:href="#md77b567824" y="152.324352"/>
     <use style="fill:#ff0000;stroke:#ff0000;" x="169.885492" xlink:href="#md77b567824" y="104.202432"/>
     <use style="fill:#ff0000;stroke:#ff0000;" x="194.460622" xlink:href="#md77b567824" y="99.855936"/>
     <use style="fill:#ff0000;stroke:#ff0000;" x="219.035751" xlink:href="#md77b567824" y="104.424192"/>
     <use style="fill:#ff0000;stroke:#ff0000;" x="243.610881" xlink:href="#md77b567824" y="105.26688"/>
     <use style="fill:#ff0000;stroke:#ff0000;" x="268.18601" xlink:href="#md77b567824" y="100.476864"/>
     <use style="fill:#ff0000;stroke:#ff0000;" x="292.76114" xlink:href="#md77b567824" y="98.747136"/>
     <use style="fill:#ff0000;stroke:#ff0000;" x="317.336269" xlink:href="#md77b567824" y="104.202432"/>
     <use style="fill:#ff0000;stroke:#ff0000;" x="341.911399" xlink:href="#md77b567824" y="102.029184"/>
     <use style="fill:#ff0000;stroke:#ff0000;" x="366.486528" xlink:href="#md77b567824" y="98.081856"/>
     <use style="fill:#ff0000;stroke:#ff0000;" x="391.061658" xlink:href="#md77b567824" y="112.008384"/>
     <use style="fill:#ff0000;stroke:#ff0000;" x="415.636788" xlink:href="#md77b567824" y="103.980672"/>
     <use style="fill:#ff0000;stroke:#ff0000;" x="440.211917" xlink:href="#md77b567824" y="98.303616"/>
     <use style="fill:#ff0000;stroke:#ff0000;" x="464.787047" xlink:href="#md77b567824" y="101.142144"/>
     <use style="fill:#ff0000;stroke:#ff0000;" x="489.362176" xlink:href="#md77b567824" y="99.190656"/>
     <use style="fill:#ff0000;stroke:#ff0000;" x="513.937306" xlink:href="#md77b567824" y="102.029184"/>
     <use style="fill:#ff0000;stroke:#ff0000;" x="538.512435" xlink:href="#md77b567824" y="98.968896"/>
    </g>
   </g>
   <g id="patch_3">
    <path d="M 76.5 512.64 
L 76.5 69.12 
" style="fill:none;stroke:#000000;stroke-linecap:square;stroke-linejoin:miter;stroke-width:0.8;"/>
   </g>
   <g id="patch_4">
    <path d="M 550.8 512.64 
L 550.8 69.12 
" style="fill:none;stroke:#000000;stroke-linecap:square;stroke-linejoin:miter;stroke-width:0.8;"/>
   </g>
   <g id="patch_5">
    <path d="M 76.5 512.64 
L 550.8 512.64 
" style="fill:none;stroke:#000000;stroke-linecap:square;stroke-linejoin:miter;stroke-width:0.8;"/>
   </g>
   <g id="patch_6">
    <path d="M 76.5 69.12 
L 550.8 69.12 
" style="fill:none;stroke:#000000;stroke-linecap:square;stroke-linejoin:miter;stroke-width:0.8;"/>
   </g>
   <g id="legend_1">
    <g id="patch_7">
     <path d="M 438.453125 507.64 
L 543.8 507.64 
Q 545.8 507.64 545.8 505.64 
L 545.8 438.765 
Q 545.8 436.765 543.8 436.765 
L 438.453125 436.765 
Q 436.453125 436.765 436.453125 438.765 
L 436.453125 505.64 
Q 436.453125 507.64 438.453125 507.64 
z
" style="fill:#ffffff;opacity:0.8;stroke:#cccccc;stroke-linejoin:miter;"/>
    </g>
    <g id="line2d_29">
     <path d="M 440.453125 450.780625 
L 460.453125 450.780625 
" style="fill:none;stroke:#bf00bf;stroke-dasharray:12.95,5.6;stroke-dashoffset:0;stroke-width:3.5;"/>
    </g>
    <g id="line2d_30">
     <g>
      <use style="fill:#bf00bf;stroke:#bf00bf;" x="450.453125" xlink:href="#m655d25da63" y="450.780625"/>
     </g>
    </g>
    <g id="text_28">
     <!-- FedAvg -->
     <g transform="translate(468.453125 454.280625)scale(0.2 -0.2)">
      <defs>
       <path d="M 1759 3994 
L 1759 2253 
L 1881 2253 
Q 2163 2253 2341 2337 
Q 2519 2422 2642 2622 
Q 2766 2822 2803 3163 
L 2913 3163 
L 2913 1034 
L 2803 1034 
Q 2744 1638 2480 1830 
Q 2216 2022 1881 2022 
L 1759 2022 
L 1759 725 
Q 1759 400 1795 319 
Q 1831 238 1936 177 
Q 2041 116 2219 116 
L 2359 116 
L 2359 0 
L 144 0 
L 144 116 
L 284 116 
Q 469 116 581 181 
Q 663 225 706 331 
Q 741 406 741 725 
L 741 3513 
Q 741 3838 706 3919 
Q 672 4000 567 4061 
Q 463 4122 284 4122 
L 144 4122 
L 144 4238 
L 3719 4238 
L 3719 3022 
L 3591 3022 
Q 3547 3450 3367 3656 
Q 3188 3863 2847 3947 
Q 2659 3994 2153 3994 
L 1759 3994 
z
" id="TimesNewRomanPS-BoldMT-46" transform="scale(0.015625)"/>
       <path d="M 2691 1566 
L 1088 1566 
Q 1116 984 1397 647 
Q 1613 388 1916 388 
Q 2103 388 2256 492 
Q 2409 597 2584 869 
L 2691 800 
Q 2453 316 2165 114 
Q 1878 -88 1500 -88 
Q 850 -88 516 413 
Q 247 816 247 1413 
Q 247 2144 642 2576 
Q 1038 3009 1569 3009 
Q 2013 3009 2339 2645 
Q 2666 2281 2691 1566 
z
M 1922 1775 
Q 1922 2278 1867 2465 
Q 1813 2653 1697 2750 
Q 1631 2806 1522 2806 
Q 1359 2806 1256 2647 
Q 1072 2369 1072 1884 
L 1072 1775 
L 1922 1775 
z
" id="TimesNewRomanPS-BoldMT-65" transform="scale(0.015625)"/>
       <path d="M 3056 4238 
L 3056 875 
Q 3056 534 3075 472 
Q 3100 369 3170 319 
Q 3241 269 3416 256 
L 3416 153 
L 2181 -88 
L 2181 375 
Q 1959 106 1786 9 
Q 1613 -88 1394 -88 
Q 834 -88 509 413 
Q 247 819 247 1409 
Q 247 1881 409 2254 
Q 572 2628 855 2818 
Q 1138 3009 1463 3009 
Q 1672 3009 1834 2928 
Q 1997 2847 2181 2644 
L 2181 3525 
Q 2181 3859 2153 3928 
Q 2116 4019 2041 4062 
Q 1966 4106 1759 4106 
L 1759 4238 
L 3056 4238 
z
M 2181 2256 
Q 1950 2700 1616 2700 
Q 1500 2700 1425 2638 
Q 1309 2541 1236 2297 
Q 1163 2053 1163 1550 
Q 1163 997 1244 731 
Q 1325 466 1466 347 
Q 1538 288 1663 288 
Q 1938 288 2181 719 
L 2181 2256 
z
" id="TimesNewRomanPS-BoldMT-64" transform="scale(0.015625)"/>
       <path d="M 1534 -88 
L 550 2178 
Q 372 2588 272 2697 
Q 200 2778 59 2806 
L 59 2922 
L 1613 2922 
L 1613 2806 
Q 1466 2806 1413 2753 
Q 1338 2684 1338 2591 
Q 1338 2475 1475 2156 
L 1956 1059 
L 2341 2006 
Q 2506 2413 2506 2581 
Q 2506 2678 2436 2739 
Q 2366 2800 2188 2806 
L 2188 2922 
L 3144 2922 
L 3144 2806 
Q 3006 2788 2918 2703 
Q 2831 2619 2656 2206 
L 1681 -88 
L 1534 -88 
z
" id="TimesNewRomanPS-BoldMT-76" transform="scale(0.015625)"/>
       <path d="M 2091 2888 
L 3075 2888 
L 3075 2544 
L 2516 2544 
Q 2669 2391 2728 2266 
Q 2803 2097 2803 1913 
Q 2803 1600 2629 1370 
Q 2456 1141 2157 1011 
Q 1859 881 1628 881 
Q 1609 881 1253 897 
Q 1113 897 1017 805 
Q 922 713 922 584 
Q 922 472 1008 400 
Q 1094 328 1288 328 
L 1828 334 
Q 2484 334 2731 191 
Q 3084 -9 3084 -425 
Q 3084 -691 2921 -908 
Q 2759 -1125 2494 -1228 
Q 2091 -1381 1566 -1381 
Q 1172 -1381 847 -1304 
Q 522 -1228 381 -1092 
Q 241 -956 241 -806 
Q 241 -663 348 -548 
Q 456 -434 750 -356 
Q 344 -156 344 200 
Q 344 416 509 619 
Q 675 822 1034 972 
Q 616 1125 428 1375 
Q 241 1625 241 1953 
Q 241 2381 591 2695 
Q 941 3009 1491 3009 
Q 1781 3009 2091 2888 
z
M 1550 2816 
Q 1369 2816 1244 2633 
Q 1119 2450 1119 1875 
Q 1119 1409 1242 1236 
Q 1366 1063 1534 1063 
Q 1722 1063 1847 1234 
Q 1972 1406 1972 1903 
Q 1972 2463 1831 2666 
Q 1731 2816 1550 2816 
z
M 1366 -431 
Q 1047 -431 944 -484 
Q 766 -581 766 -747 
Q 766 -906 950 -1036 
Q 1134 -1166 1644 -1166 
Q 2078 -1166 2326 -1050 
Q 2575 -934 2575 -725 
Q 2575 -647 2528 -594 
Q 2444 -500 2273 -465 
Q 2103 -431 1366 -431 
z
" id="TimesNewRomanPS-BoldMT-67" transform="scale(0.015625)"/>
      </defs>
      <use xlink:href="#TimesNewRomanPS-BoldMT-46"/>
      <use x="61.083984" xlink:href="#TimesNewRomanPS-BoldMT-65"/>
      <use x="105.46875" xlink:href="#TimesNewRomanPS-BoldMT-64"/>
      <use x="161.083984" xlink:href="#TimesNewRomanPS-BoldMT-41"/>
      <use x="225.925781" xlink:href="#TimesNewRomanPS-BoldMT-76"/>
      <use x="275.925781" xlink:href="#TimesNewRomanPS-BoldMT-67"/>
     </g>
    </g>
    <g id="line2d_31">
     <path d="M 440.453125 473.34 
L 460.453125 473.34 
" style="fill:none;stroke:#008000;stroke-dasharray:9.25,4;stroke-dashoffset:0;stroke-width:2.5;"/>
    </g>
    <g id="line2d_32">
     <g>
      <use style="fill:#008000;stroke:#008000;stroke-linejoin:miter;" x="450.453125" xlink:href="#mafeb0eb6c7" y="473.34"/>
     </g>
    </g>
    <g id="text_29">
     <!-- Random -->
     <g transform="translate(468.453125 476.84)scale(0.2 -0.2)">
      <defs>
       <path d="M 1700 1931 
L 1700 744 
Q 1700 400 1742 311 
Q 1784 222 1890 169 
Q 1997 116 2288 116 
L 2288 0 
L 119 0 
L 119 116 
Q 413 116 517 170 
Q 622 225 664 312 
Q 706 400 706 744 
L 706 3494 
Q 706 3838 664 3927 
Q 622 4016 515 4069 
Q 409 4122 119 4122 
L 119 4238 
L 2088 4238 
Q 2856 4238 3212 4131 
Q 3569 4025 3794 3739 
Q 4019 3453 4019 3069 
Q 4019 2600 3681 2294 
Q 3466 2100 3078 2003 
L 4097 569 
Q 4297 291 4381 222 
Q 4509 125 4678 116 
L 4678 0 
L 3344 0 
L 1978 1931 
L 1700 1931 
z
M 1700 4009 
L 1700 2153 
L 1878 2153 
Q 2313 2153 2528 2233 
Q 2744 2313 2867 2520 
Q 2991 2728 2991 3063 
Q 2991 3547 2764 3778 
Q 2538 4009 2034 4009 
L 1700 4009 
z
" id="TimesNewRomanPS-BoldMT-52" transform="scale(0.015625)"/>
       <path d="M 1409 2922 
L 1409 2544 
Q 1634 2788 1840 2898 
Q 2047 3009 2284 3009 
Q 2569 3009 2756 2851 
Q 2944 2694 3006 2459 
Q 3056 2281 3056 1775 
L 3056 638 
Q 3056 300 3117 217 
Q 3178 134 3372 113 
L 3372 0 
L 1894 0 
L 1894 113 
Q 2059 134 2131 250 
Q 2181 328 2181 638 
L 2181 1938 
Q 2181 2297 2153 2390 
Q 2125 2484 2058 2536 
Q 1991 2588 1909 2588 
Q 1641 2588 1409 2203 
L 1409 638 
Q 1409 309 1470 221 
Q 1531 134 1697 113 
L 1697 0 
L 219 0 
L 219 113 
Q 403 131 481 231 
Q 534 300 534 638 
L 534 2288 
Q 534 2619 473 2700 
Q 413 2781 219 2806 
L 219 2922 
L 1409 2922 
z
" id="TimesNewRomanPS-BoldMT-6e" transform="scale(0.015625)"/>
       <path d="M 1428 2922 
L 1428 2538 
Q 1669 2800 1873 2904 
Q 2078 3009 2322 3009 
Q 2603 3009 2793 2878 
Q 2984 2747 3088 2478 
Q 3338 2759 3567 2884 
Q 3797 3009 4047 3009 
Q 4350 3009 4529 2870 
Q 4709 2731 4779 2517 
Q 4850 2303 4850 1834 
L 4850 638 
Q 4850 300 4911 219 
Q 4972 138 5166 113 
L 5166 0 
L 3656 0 
L 3656 113 
Q 3834 128 3919 250 
Q 3975 334 3975 638 
L 3975 1894 
Q 3975 2284 3944 2390 
Q 3913 2497 3845 2548 
Q 3778 2600 3688 2600 
Q 3553 2600 3415 2501 
Q 3278 2403 3138 2206 
L 3138 638 
Q 3138 322 3191 241 
Q 3263 125 3466 113 
L 3466 0 
L 1953 0 
L 1953 113 
Q 2075 119 2145 173 
Q 2216 228 2239 304 
Q 2263 381 2263 638 
L 2263 1894 
Q 2263 2291 2231 2391 
Q 2200 2491 2126 2547 
Q 2053 2603 1969 2603 
Q 1844 2603 1741 2538 
Q 1594 2441 1428 2206 
L 1428 638 
Q 1428 328 1489 229 
Q 1550 131 1744 113 
L 1744 0 
L 238 0 
L 238 113 
Q 422 131 500 231 
Q 553 300 553 638 
L 553 2288 
Q 553 2619 492 2700 
Q 431 2781 238 2806 
L 238 2922 
L 1428 2922 
z
" id="TimesNewRomanPS-BoldMT-6d" transform="scale(0.015625)"/>
      </defs>
      <use xlink:href="#TimesNewRomanPS-BoldMT-52"/>
      <use x="72.216797" xlink:href="#TimesNewRomanPS-BoldMT-61"/>
      <use x="122.216797" xlink:href="#TimesNewRomanPS-BoldMT-6e"/>
      <use x="177.832031" xlink:href="#TimesNewRomanPS-BoldMT-64"/>
      <use x="233.447266" xlink:href="#TimesNewRomanPS-BoldMT-6f"/>
      <use x="283.447266" xlink:href="#TimesNewRomanPS-BoldMT-6d"/>
     </g>
    </g>
    <g id="line2d_33">
     <path d="M 440.453125 495.861875 
L 460.453125 495.861875 
" style="fill:none;stroke:#ff0000;stroke-dasharray:12.95,5.6;stroke-dashoffset:0;stroke-width:3.5;"/>
    </g>
    <g id="line2d_34">
     <g>
      <use style="fill:#ff0000;stroke:#ff0000;" x="450.453125" xlink:href="#md77b567824" y="495.861875"/>
     </g>
    </g>
    <g id="text_30">
     <!-- BGFL -->
     <g transform="translate(468.453125 499.361875)scale(0.2 -0.2)">
      <defs>
       <path d="M 2847 2247 
Q 3450 2106 3694 1906 
Q 4044 1622 4044 1169 
Q 4044 691 3659 378 
Q 3188 0 2288 0 
L 134 0 
L 134 116 
Q 428 116 533 170 
Q 638 225 680 312 
Q 722 400 722 744 
L 722 3494 
Q 722 3838 680 3927 
Q 638 4016 531 4069 
Q 425 4122 134 4122 
L 134 4238 
L 2166 4238 
Q 2894 4238 3197 4108 
Q 3500 3978 3675 3720 
Q 3850 3463 3850 3172 
Q 3850 2866 3628 2627 
Q 3406 2388 2847 2247 
z
M 1709 2331 
Q 2153 2331 2364 2431 
Q 2575 2531 2687 2712 
Q 2800 2894 2800 3175 
Q 2800 3456 2689 3636 
Q 2578 3816 2372 3909 
Q 2166 4003 1709 4000 
L 1709 2331 
z
M 1709 2088 
L 1709 728 
L 1706 572 
Q 1706 403 1792 317 
Q 1878 231 2047 231 
Q 2297 231 2508 342 
Q 2719 453 2831 664 
Q 2944 875 2944 1134 
Q 2944 1431 2806 1667 
Q 2669 1903 2428 1997 
Q 2188 2091 1709 2088 
z
" id="TimesNewRomanPS-BoldMT-42" transform="scale(0.015625)"/>
       <path d="M 4416 4334 
L 4416 2841 
L 4300 2841 
Q 4091 3453 3672 3772 
Q 3253 4091 2756 4091 
Q 2281 4091 1965 3823 
Q 1650 3556 1519 3078 
Q 1388 2600 1388 2097 
Q 1388 1488 1531 1028 
Q 1675 569 1995 353 
Q 2316 138 2756 138 
Q 2909 138 3070 170 
Q 3231 203 3400 266 
L 3400 1147 
Q 3400 1397 3365 1470 
Q 3331 1544 3223 1603 
Q 3116 1663 2963 1663 
L 2853 1663 
L 2853 1778 
L 4913 1778 
L 4913 1663 
Q 4678 1647 4586 1598 
Q 4494 1550 4444 1438 
Q 4416 1378 4416 1147 
L 4416 266 
Q 4009 84 3570 -8 
Q 3131 -100 2659 -100 
Q 2056 -100 1657 64 
Q 1259 228 954 495 
Q 650 763 478 1097 
Q 259 1528 259 2063 
Q 259 3019 931 3678 
Q 1603 4338 2622 4338 
Q 2938 4338 3191 4288 
Q 3328 4263 3636 4145 
Q 3944 4028 4000 4028 
Q 4088 4028 4163 4092 
Q 4238 4156 4300 4334 
L 4416 4334 
z
" id="TimesNewRomanPS-BoldMT-47" transform="scale(0.015625)"/>
       <path d="M 4041 1488 
L 3881 0 
L 119 0 
L 119 116 
L 259 116 
Q 444 116 556 181 
Q 638 225 681 331 
Q 716 406 716 725 
L 716 3513 
Q 716 3838 681 3919 
Q 647 4000 542 4061 
Q 438 4122 259 4122 
L 119 4122 
L 119 4238 
L 2378 4238 
L 2378 4122 
L 2194 4122 
Q 2009 4122 1897 4056 
Q 1816 4013 1769 3906 
Q 1734 3831 1734 3513 
L 1734 813 
Q 1734 488 1771 398 
Q 1809 309 1919 266 
Q 1997 238 2297 238 
L 2650 238 
Q 2988 238 3213 356 
Q 3438 475 3602 731 
Q 3766 988 3913 1488 
L 4041 1488 
z
" id="TimesNewRomanPS-BoldMT-4c" transform="scale(0.015625)"/>
      </defs>
      <use xlink:href="#TimesNewRomanPS-BoldMT-42"/>
      <use x="66.699219" xlink:href="#TimesNewRomanPS-BoldMT-47"/>
      <use x="144.482422" xlink:href="#TimesNewRomanPS-BoldMT-46"/>
      <use x="205.566406" xlink:href="#TimesNewRomanPS-BoldMT-4c"/>
     </g>
    </g>
   </g>
  </g>
 </g>
 <defs>
  <clipPath id="p3e5dee081f">
   <rect height="443.52" width="474.3" x="76.5" y="69.12"/>
  </clipPath>
 </defs>
</svg>
